<svg width="32" height="32" viewBox="0 0 32 32" fill="none" xmlns="http://www.w3.org/2000/svg">
<mask id="mask0_6_3617" style="mask-type:alpha" maskUnits="userSpaceOnUse" x="0" y="0" width="32" height="32">
<circle cx="16" cy="16" r="16" fill="#D9D9D9"/>
</mask>
<g mask="url(#mask0_6_3617)">
<path d="M-5.48621 9.7052H37.4868V24.0295H-5.48621V9.7052Z" fill="white"/>
<path d="M0.243524 -0.321838H31.757C34.9198 -0.321838 37.4868 2.24508 37.4868 5.40789V11.1376H-5.48621V5.40789C-5.48621 2.24508 -2.91929 -0.321838 0.243524 -0.321838Z" fill="#E06535"/>
<path d="M31.757 34.0565L0.243511 34.0565C-2.9193 34.0565 -5.48622 31.4896 -5.48622 28.3268V22.5971L37.4868 22.5971V28.3268C37.4868 31.4896 34.9198 34.0565 31.757 34.0565Z" fill="#2C6837"/>
<path d="M16.0003 11.5559C13.0667 11.5559 10.6888 13.9337 10.6888 16.8674C10.6888 19.801 13.0667 22.1788 16.0003 22.1788C18.9339 22.1788 21.3117 19.801 21.3117 16.8674C21.3117 13.9337 18.9339 11.5559 16.0003 11.5559ZM20.3563 17.4418C20.342 17.5506 20.4165 17.6495 20.5239 17.6667C20.4766 17.9331 20.4093 18.1924 20.3191 18.4402C20.2174 18.4001 20.1013 18.4488 20.0598 18.5505C20.0182 18.6522 20.0655 18.7668 20.1644 18.8112C20.1071 18.9329 20.0455 19.0504 19.9781 19.1664L17.6705 17.6352L16.8225 17.2785C16.8411 17.2412 16.8569 17.2026 16.8712 17.1624L17.7235 17.5091L20.4379 18.0577L17.8123 17.1753L16.9013 17.0507C16.9099 17.0106 16.9142 16.9691 16.917 16.9261L17.8309 17.0407L20.5955 16.8688L17.8309 16.6969L16.917 16.8115C16.9142 16.7685 16.9099 16.727 16.9013 16.6869L17.8123 16.5623L20.4379 15.6799L17.7235 16.2285L16.8712 16.5752C16.8583 16.535 16.8411 16.4964 16.8225 16.4591L17.6705 16.1024L19.9781 14.5712C20.0455 14.6872 20.1071 14.8047 20.1644 14.9264C20.0641 14.9708 20.0168 15.0854 20.0598 15.1871C20.1013 15.2888 20.2174 15.3375 20.3191 15.2974C20.4093 15.5452 20.4781 15.8045 20.5239 16.0709C20.4165 16.0881 20.342 16.187 20.3563 16.2958C20.3706 16.4047 20.468 16.4806 20.5769 16.4692C20.5884 16.6009 20.5955 16.7342 20.5955 16.8688C20.5955 17.0034 20.5884 17.1367 20.5769 17.2685C20.4695 17.257 20.3706 17.3329 20.3563 17.4418ZM19.5198 13.9151C19.4352 13.9839 19.4195 14.1071 19.4868 14.193C19.5527 14.279 19.6759 14.2962 19.7647 14.2331C19.8406 14.342 19.9122 14.4552 19.9781 14.5712L17.5 15.8045L16.7666 16.3603C16.7437 16.3259 16.7179 16.293 16.6893 16.2614L17.4169 15.6971L19.2505 13.62L17.1734 15.4536L16.6091 16.1812C16.5775 16.154 16.5446 16.1268 16.5102 16.1039L17.066 15.3705L18.2993 12.8909C18.4154 12.9583 18.5285 13.0299 18.6374 13.1058C18.5729 13.1932 18.5901 13.3164 18.6775 13.3837C18.7649 13.4496 18.8881 13.4353 18.9554 13.3507C19.0571 13.4367 19.1574 13.5269 19.2519 13.6215C19.3464 13.716 19.4367 13.8149 19.5226 13.918L19.5198 13.9151ZM16.4014 12.2922C16.3899 12.3996 16.4658 12.4984 16.5747 12.5128C16.6835 12.5271 16.7824 12.4526 16.7996 12.3452C17.066 12.3924 17.3253 12.4598 17.5731 12.55C17.533 12.6517 17.5817 12.7677 17.6834 12.8093C17.7851 12.8508 17.8997 12.8036 17.9441 12.7047C18.0658 12.762 18.1833 12.8236 18.2993 12.8909L16.7681 15.1986L16.4114 16.0466C16.3741 16.028 16.3355 16.0122 16.2954 15.9979L16.642 15.1456L17.1906 12.4311L16.3082 15.0568L16.1836 15.9678C16.1435 15.9592 16.102 15.9549 16.059 15.952L16.1736 15.0382L16.0017 12.2736L15.8298 15.0382L15.9444 15.952C15.9014 15.9549 15.8599 15.9592 15.8198 15.9678L15.6952 15.0568L14.8128 12.4311L15.3614 15.1456L15.7081 15.9979C15.6679 16.0108 15.6293 16.028 15.592 16.0466L15.2354 15.1986L13.7041 12.8909C13.8201 12.8236 13.9376 12.762 14.0593 12.7047C14.1037 12.805 14.2183 12.8523 14.32 12.8093C14.4217 12.7677 14.4704 12.6517 14.4303 12.55C14.6781 12.4598 14.9374 12.391 15.2038 12.3452C15.221 12.4526 15.3199 12.5271 15.4287 12.5128C15.5376 12.4984 15.6135 12.401 15.6021 12.2922C15.7338 12.2807 15.8671 12.2736 16.0017 12.2736C16.1364 12.2736 16.2696 12.2807 16.4014 12.2922ZM11.9422 18.549C11.9007 18.4473 11.7846 18.3986 11.6829 18.4387C11.5927 18.1909 11.5239 17.9317 11.4781 17.6652C11.5855 17.648 11.66 17.5492 11.6457 17.4403C11.6314 17.3315 11.5339 17.2556 11.4251 17.267C11.4136 17.1352 11.4065 17.002 11.4065 16.8674C11.4065 16.7327 11.4136 16.5995 11.4251 16.4677C11.5325 16.4792 11.6314 16.4033 11.6457 16.2944C11.66 16.1855 11.5855 16.0867 11.4781 16.0695C11.5254 15.8031 11.5927 15.5438 11.6829 15.296C11.7846 15.3361 11.9007 15.2874 11.9422 15.1857C11.9837 15.084 11.9365 14.9694 11.8376 14.925C11.8949 14.8032 11.9565 14.6858 12.0238 14.5697L14.3315 16.101L15.1795 16.4577C15.1609 16.4949 15.1451 16.5336 15.1308 16.5737L14.2785 16.2271L11.564 15.6784L14.1897 16.5608L15.1007 16.6854C15.0921 16.7256 15.0878 16.7671 15.0849 16.8101L14.1711 16.6955L11.4065 16.8674L14.1711 17.0393L15.0849 16.9247C15.0878 16.9676 15.0921 17.0092 15.1007 17.0493L14.1897 17.1739L11.564 18.0563L14.2785 17.5077L15.1308 17.161C15.1437 17.2011 15.1609 17.2398 15.1795 17.277L14.3315 17.6337L12.0238 19.165C11.9565 19.049 11.8949 18.9315 11.8376 18.8097C11.9379 18.7653 11.9852 18.6507 11.9422 18.549ZM13.048 13.3493C13.1168 13.4338 13.24 13.4496 13.3259 13.3823C13.4119 13.3164 13.4291 13.1932 13.366 13.1044C13.4749 13.0284 13.5881 12.9554 13.7041 12.8895L14.9374 15.369L15.4932 16.1024C15.4588 16.1254 15.4259 16.1512 15.3944 16.1798L14.83 15.4521L12.7529 13.6186L14.5865 15.6956L15.3141 16.26C15.2869 16.2915 15.2597 16.3245 15.2368 16.3589L14.5034 15.8031L12.0238 14.5697C12.0912 14.4537 12.1628 14.3406 12.2387 14.2317C12.3261 14.2962 12.4493 14.279 12.5166 14.1916C12.5825 14.1042 12.5682 13.981 12.4837 13.9137C12.5696 13.812 12.6598 13.7117 12.7544 13.6172C12.8489 13.5226 12.9478 13.4324 13.0509 13.3464L13.048 13.3493ZM12.4822 19.821C12.5667 19.7523 12.5825 19.6291 12.5152 19.5432C12.4493 19.4572 12.3261 19.44 12.2373 19.503C12.1614 19.3942 12.0883 19.281 12.0224 19.165L14.5019 17.9317L15.2354 17.3759C15.2583 17.4103 15.2841 17.4432 15.3127 17.4747L14.585 18.0391L12.7515 20.1161L14.8285 18.2826L15.3929 17.5549C15.4244 17.5822 15.4574 17.6094 15.4918 17.6323L14.936 18.3657L13.7027 20.8452C13.5866 20.7779 13.4735 20.7063 13.3646 20.6304C13.4291 20.543 13.4119 20.4198 13.3245 20.3525C13.2371 20.2866 13.1139 20.3009 13.0466 20.3854C12.9449 20.2995 12.8446 20.2092 12.7501 20.1147C12.6555 20.0202 12.5653 19.9213 12.4794 19.8182L12.4822 19.821ZM15.6006 21.444C15.6121 21.3366 15.5362 21.2377 15.4273 21.2234C15.3184 21.2091 15.2196 21.2836 15.2024 21.391C14.936 21.3437 14.6767 21.2764 14.4289 21.1862C14.469 21.0844 14.4203 20.9684 14.3186 20.9269C14.2169 20.8853 14.1023 20.9326 14.0579 21.0314C13.9361 20.9742 13.8187 20.9126 13.7027 20.8452L15.2339 18.5376L15.5906 17.6896C15.6278 17.7082 15.6665 17.724 15.7066 17.7383L15.36 18.5906L14.8114 21.305L15.6937 18.6794L15.8184 17.7684C15.8585 17.777 15.9 17.7813 15.943 17.7841L15.8284 18.698L16.0003 21.4626L16.1722 18.698L16.0576 17.7841C16.1005 17.7813 16.1421 17.777 16.1822 17.7684L16.3068 18.6794L17.1892 21.305L16.6406 18.5906L16.2939 17.7383C16.334 17.7254 16.3727 17.7082 16.4099 17.6896L16.7666 18.5376L18.2979 20.8452C18.1819 20.9126 18.0644 20.9742 17.9427 21.0314C17.8982 20.9312 17.7837 20.8839 17.6819 20.9269C17.5802 20.9684 17.5315 21.0844 17.5717 21.1862C17.3238 21.2764 17.0646 21.3452 16.7981 21.391C16.7809 21.2836 16.6821 21.2091 16.5732 21.2234C16.4644 21.2377 16.3885 21.3351 16.3999 21.444C16.2681 21.4554 16.1349 21.4626 16.0003 21.4626C15.8656 21.4626 15.7324 21.4554 15.6006 21.444ZM18.9539 20.3869C18.8852 20.3023 18.762 20.2866 18.6761 20.3539C18.5901 20.4198 18.5729 20.543 18.6359 20.6318C18.5271 20.7077 18.4139 20.7793 18.2979 20.8452L17.0646 18.3671L16.5088 17.6337C16.5432 17.6108 16.5761 17.585 16.6076 17.5564L17.172 18.284L19.249 20.1176L17.4155 18.0405L16.6878 17.4762C16.7151 17.4446 16.7423 17.4117 16.7652 17.3773L17.4986 17.9331L19.9781 19.1664C19.9108 19.2824 19.8392 19.3956 19.7633 19.5045C19.6759 19.44 19.5527 19.4572 19.4854 19.5446C19.4195 19.632 19.4338 19.7552 19.5183 19.8225C19.4324 19.9242 19.3421 20.0245 19.2476 20.119C19.1531 20.2135 19.0542 20.3038 18.9511 20.3897L18.9539 20.3869Z" fill="#2C2C6B"/>
</g>
</svg>
