<svg width="32" height="32" viewBox="0 0 32 32" fill="none" xmlns="http://www.w3.org/2000/svg">
<g clip-path="url(#clip0_6_3557)">
<path d="M15.9766 -0.0195381C16.0402 -0.0194034 16.1038 -0.0192687 16.1693 -0.01913C17.0824 -0.0160255 17.9782 -0.000344485 18.875 0.187493C18.9359 0.19991 18.9968 0.212328 19.0596 0.225121C22.0835 0.85766 24.8328 2.22744 27.0625 4.37499C27.1243 4.43426 27.1243 4.43426 27.1874 4.49471C27.7804 5.06624 28.3266 5.64733 28.8125 6.31249C28.8661 6.38443 28.9198 6.45637 28.9734 6.52831C29.3508 7.04026 29.6857 7.57237 30 8.12499C30.0228 8.16448 30.0456 8.20397 30.069 8.24465C31.4194 10.6039 32.0298 13.2768 32.0195 15.9766C32.0194 16.0402 32.0193 16.1038 32.0191 16.1693C32.016 17.0824 32.0003 17.9782 31.8125 18.875C31.7939 18.9664 31.7939 18.9664 31.7749 19.0596C31.1423 22.0835 29.7725 24.8328 27.625 27.0625C27.5855 27.1037 27.546 27.1449 27.5053 27.1874C26.9337 27.7804 26.3527 28.3266 25.6875 28.8125C25.6156 28.8661 25.5436 28.9198 25.4717 28.9734C24.9598 29.3507 24.4284 29.6872 23.875 30C23.8308 30.0251 23.7866 30.0503 23.7411 30.0762C22.2951 30.8903 20.7219 31.4371 19.0976 31.7695C19.0527 31.7787 19.0078 31.7879 18.9615 31.7974C18.0443 31.9718 17.1364 32.0218 16.2045 32.0197C16.0208 32.0195 15.8372 32.021 15.6534 32.0226C14.8176 32.0254 14.0116 31.95 13.1875 31.8125C13.0809 31.7949 13.0809 31.7949 12.9721 31.7769C10.2679 31.2911 7.70231 30.0419 5.62499 28.25C5.57843 28.2104 5.53186 28.1707 5.48388 28.1299C4.63982 27.3917 3.84786 26.5948 3.18749 25.6875C3.13396 25.6156 3.08041 25.5438 3.02685 25.4719C2.64935 24.96 2.31289 24.4285 1.99999 23.875C1.97486 23.8308 1.94972 23.7866 1.92382 23.7411C1.10973 22.2951 0.56293 20.7219 0.230462 19.0976C0.221252 19.0527 0.212042 19.0078 0.202554 18.9615C0.0166875 17.9836 -0.0233196 17.0165 -0.0195381 16.0234C-0.0194034 15.9598 -0.0192687 15.8962 -0.01913 15.8306C-0.0160255 14.9176 -0.000344485 14.0218 0.187493 13.125C0.19991 13.0641 0.212328 13.0031 0.225121 12.9404C0.85766 9.91649 2.22744 7.16723 4.37499 4.93749C4.4145 4.89628 4.45401 4.85507 4.49471 4.81262C5.06624 4.2196 5.64733 3.67336 6.31249 3.18749C6.38443 3.13386 6.45637 3.08023 6.52831 3.0266C7.04017 2.64926 7.57158 2.31283 8.12499 1.99999C8.16919 1.97486 8.2134 1.94972 8.25893 1.92382C9.7049 1.10973 11.2781 0.56293 12.9023 0.230462C12.9473 0.221252 12.9922 0.212042 13.0385 0.202554C14.0164 0.0166875 14.9835 -0.0233196 15.9766 -0.0195381Z" fill="#3D9635"/>
<path d="M6.56249 8C6.76006 8.08561 6.81203 8.12432 6.93749 8.3125C6.97264 8.47827 6.97264 8.47827 6.99999 8.68359C7.01558 8.79913 7.01558 8.79913 7.03148 8.91699C7.05565 9.11658 7.07441 9.31629 7.09154 9.5166C7.09897 9.60072 7.09897 9.60072 7.10655 9.68654C7.11613 9.79791 7.12494 9.90936 7.13292 10.0209C7.13731 10.0722 7.1417 10.1236 7.14623 10.1765C7.14969 10.2223 7.15314 10.2681 7.15671 10.3154C7.19451 10.4654 7.25867 10.5262 7.37499 10.625C7.35694 10.5698 7.33889 10.5146 7.3203 10.4578C7.13572 9.86107 6.99079 9.28689 7.24999 8.6875C7.35936 8.69141 7.35936 8.69141 7.49999 8.75C7.77565 9.15956 7.81386 9.47632 7.8242 9.96875C7.83598 10.2809 7.83598 10.2809 7.9536 10.5659C8.11957 10.7069 8.29158 10.7664 8.49999 10.8125C8.47936 10.3931 8.38191 10.0883 8.19725 9.71143C8.09435 9.49936 8.05153 9.32733 8.04686 9.09375C8.04525 9.04541 8.04364 8.99707 8.04198 8.94727C8.06749 8.77962 8.1157 8.72555 8.24999 8.625C8.39842 8.62109 8.39842 8.62109 8.56249 8.6875C8.68169 8.80508 8.77438 8.92741 8.87499 9.0625C8.87172 8.97778 8.87172 8.97778 8.86839 8.89136C8.8667 8.81764 8.86501 8.74392 8.86327 8.66797C8.86109 8.59473 8.85892 8.5215 8.85668 8.44604C8.87499 8.25 8.87499 8.25 8.94994 8.13013C9.09779 8.04129 9.20559 8.04877 9.37499 8.0625C9.90444 9.07646 9.90444 9.07646 9.87499 9.5625C9.77186 9.5625 9.66874 9.5625 9.56249 9.5625C9.57457 9.63896 9.58666 9.71542 9.59911 9.79419C9.71314 10.5278 9.80393 11.261 9.87499 12C9.99874 12 10.1225 12 10.25 12C10.3119 12.2166 10.3119 12.2166 10.375 12.4375C10.4781 12.4375 10.5812 12.4375 10.6875 12.4375C10.7055 12.3782 10.7236 12.3189 10.7422 12.2578C10.8125 12.0625 10.8125 12.0625 10.9375 11.9375C11.1015 11.9609 11.1015 11.9609 11.25 12C11.2706 12.1031 11.2912 12.2063 11.3125 12.3125C11.3744 12.3125 11.4362 12.3125 11.5 12.3125C11.5064 12.2429 11.5129 12.1733 11.5195 12.1016C11.5337 12.0268 11.5479 11.952 11.5625 11.875C11.75 11.75 11.75 11.75 11.9375 11.75C11.9699 12.7539 11.9699 12.7539 11.6719 13.1016C11.4222 13.2264 11.2337 13.2201 10.9687 13.1406C10.7371 13.1175 10.6263 13.2478 10.4375 13.375C10.2344 13.3984 10.2344 13.3984 10.0625 13.375C10.0212 13.3337 9.97999 13.2925 9.93749 13.25C9.93625 13.2884 9.93501 13.3268 9.93373 13.3663C9.9277 13.5437 9.92088 13.7211 9.91405 13.8984C9.91211 13.9588 9.91018 14.0191 9.90819 14.0813C9.87031 15.0219 9.64362 15.7207 8.93749 16.375C8.27905 16.8529 7.57019 17.1431 6.74999 17.0625C6.37232 16.9551 6.07455 16.7125 5.87499 16.375C5.65528 15.7495 5.69769 15.0691 5.87499 14.4375C5.95749 14.4375 6.03999 14.4375 6.12499 14.4375C6.12936 14.4737 6.13373 14.51 6.13823 14.5473C6.15879 14.7127 6.18094 14.8778 6.20311 15.043C6.20996 15.1 6.21681 15.157 6.22386 15.2157C6.26902 15.5425 6.31063 15.7662 6.56249 16C6.88119 16.2 7.25844 16.2405 7.62499 16.1875C8.17838 16.0487 8.62707 15.74 8.9265 15.2515C9.1661 14.7839 9.32101 14.343 9.3828 13.8203C9.39089 13.7558 9.39089 13.7558 9.39916 13.6899C9.41227 13.585 9.42493 13.48 9.43749 13.375C9.23975 13.4766 9.23975 13.4766 9.21532 13.6362C9.20871 13.6918 9.20211 13.7474 9.1953 13.8047C9.06718 14.5888 8.73228 15.1296 8.14501 15.6567C7.81414 15.8921 7.38435 15.8615 6.99999 15.8125C6.66867 15.6556 6.44748 15.4254 6.30687 15.0852C6.2387 14.8333 6.22931 14.6072 6.23045 14.3477C6.22945 14.3023 6.22844 14.257 6.2274 14.2103C6.22711 13.8871 6.29308 13.6642 6.43749 13.375C6.5303 13.4059 6.5303 13.4059 6.62499 13.4375C6.73147 13.7037 6.70775 14.0178 6.7202 14.3005C6.76143 14.5766 6.86718 14.7422 7.06249 14.9375C7.5537 14.9681 7.93768 14.7547 8.32811 14.4844C8.60378 14.2087 8.76378 13.8897 8.81249 13.5C8.78074 13.5233 8.749 13.5466 8.71629 13.5706C8.36426 13.8125 8.36426 13.8125 8.10936 13.8125C7.92642 13.746 7.82402 13.7013 7.68749 13.5625C7.62742 13.1862 7.60852 12.7099 7.78905 12.3633C7.95414 12.1678 8.08019 12.0468 8.31249 11.9375C8.53124 11.9258 8.53124 11.9258 8.74999 12C8.89407 12.133 9.01134 12.2781 9.12499 12.4375C9.18686 12.4169 9.24874 12.3962 9.31249 12.375C9.28254 11.8464 9.22465 11.3222 9.16014 10.7969C9.1525 10.7333 9.14486 10.6697 9.13699 10.6042C9.09004 10.2298 9.02543 9.867 8.93749 9.5C8.87561 9.5 8.81374 9.5 8.74999 9.5C8.76803 9.56566 8.78608 9.63132 8.80467 9.69897C9.10833 10.8328 9.10833 10.8328 8.90233 11.2695C8.67415 11.5211 8.4612 11.6637 8.11717 11.7188C7.89409 11.68 7.79596 11.5815 7.62499 11.4375C7.54249 11.4375 7.45999 11.4375 7.37499 11.4375C7.37629 11.5065 7.3776 11.5755 7.37895 11.6466C7.38351 11.9048 7.38636 12.1631 7.38872 12.4213C7.38997 12.5327 7.39167 12.644 7.39385 12.7554C7.41856 14.053 7.41856 14.053 7.12499 14.375C6.99126 14.4193 6.99126 14.4193 6.87499 14.4375C6.87342 14.3852 6.87185 14.3329 6.87024 14.2791C6.86425 14.0829 6.85805 13.8867 6.85172 13.6906C6.84772 13.5648 6.84395 13.439 6.8402 13.3132C6.82714 12.9134 6.81005 12.5207 6.74999 12.125C6.67264 12.0992 6.5953 12.0734 6.51561 12.0469C6.2863 11.9704 6.15375 11.8755 5.99999 11.6875C5.96587 11.5042 5.96587 11.5042 5.9619 11.2939C5.95989 11.2186 5.95787 11.1433 5.9558 11.0657C5.95491 10.9873 5.95402 10.9089 5.95311 10.8281C5.95126 10.7488 5.9494 10.6694 5.9475 10.5876C5.94308 10.3918 5.93978 10.1959 5.93749 10C5.82173 10.098 5.75659 10.1549 5.72594 10.3061C5.72549 10.3499 5.72505 10.3936 5.7246 10.4387C5.72323 10.4872 5.72186 10.5356 5.72044 10.5856C5.71988 10.636 5.71932 10.6864 5.71874 10.7383C5.71035 11.4771 5.71035 11.4771 5.43749 11.75C5.23045 11.7539 5.23045 11.7539 4.99999 11.6875C4.74214 11.3524 4.67936 10.9696 4.68138 10.5576C4.68158 10.4851 4.68179 10.4126 4.68199 10.3379C4.68252 10.2625 4.68304 10.1871 4.68358 10.1094C4.68386 10.033 4.68414 9.95662 4.68443 9.87793C4.68517 9.68945 4.6862 9.50098 4.68749 9.3125C4.74936 9.33312 4.81124 9.35375 4.87499 9.375C4.92297 9.50633 4.92297 9.50633 4.95726 9.67749C4.97019 9.73876 4.98312 9.80003 4.99645 9.86316C5.00922 9.92765 5.02199 9.99215 5.03514 10.0586C5.06085 10.1855 5.08696 10.3124 5.11351 10.4392C5.12476 10.4958 5.136 10.5523 5.14758 10.6106C5.1785 10.7612 5.1785 10.7612 5.31249 10.875C5.42499 10.6281 5.46312 10.4056 5.49217 10.1367C5.55073 9.69684 5.64356 9.29747 5.99999 9C6.16405 9.01172 6.16405 9.01172 6.31249 9.0625C6.39971 9.23695 6.38862 9.38763 6.39476 9.58252C6.39738 9.66107 6.4 9.73962 6.4027 9.82056C6.40515 9.90298 6.40761 9.9854 6.41014 10.0703C6.41284 10.1541 6.41557 10.2378 6.41832 10.3215C6.42497 10.5268 6.43134 10.7322 6.43749 10.9375C6.5303 10.9066 6.5303 10.9066 6.62499 10.875C6.64913 10.4609 6.61165 10.0804 6.53124 9.67578C6.43087 9.16047 6.38653 8.64973 6.43749 8.125C6.47874 8.08375 6.51999 8.0425 6.56249 8Z" fill="#F9FCF9"/>
<path d="M13.5625 11.1875C14.1948 11.732 14.3414 12.7081 14.4219 13.5039C14.427 13.5851 14.4322 13.6663 14.4375 13.75C14.4656 13.7137 14.4937 13.6775 14.5227 13.6401C14.961 13.1079 15.4455 12.8084 16.1313 12.7078C16.2503 12.6992 16.2503 12.6992 16.3125 12.625C16.3191 12.4857 16.324 12.3464 16.3281 12.207C16.3594 11.7116 16.3594 11.7116 16.5234 11.5156C16.8348 11.2487 16.8348 11.2487 17.1172 11.2578C17.3661 11.2967 17.5095 11.3792 17.6875 11.5625C17.8793 11.8709 17.8552 12.2123 17.8125 12.5625C17.666 12.9789 17.3851 13.1851 17 13.375C16.7525 13.4369 16.505 13.4987 16.25 13.5625C17.3947 13.5934 17.3947 13.5934 18.5625 13.625C18.5625 13.8432 18.546 13.954 18.4766 14.1523C18.4606 14.1987 18.4447 14.245 18.4282 14.2927C18.4107 14.3405 18.3931 14.3883 18.375 14.4375C18.3599 14.4922 18.3449 14.5469 18.3293 14.6033C18.25 14.75 18.25 14.75 18.0881 14.8286C18.0191 14.8465 17.95 14.8644 17.8789 14.8828C17.8012 14.903 17.7234 14.9231 17.6433 14.9438C17.2954 15.0215 16.9414 15.0708 16.5874 15.1116C16.3621 15.1412 16.2162 15.1686 16.0239 15.2949C15.9219 15.4365 15.9219 15.4365 15.9333 15.6255C16.0168 15.8597 16.1083 15.923 16.3164 16.0547C16.3738 16.0919 16.4313 16.1291 16.4905 16.1675C16.5349 16.1947 16.5793 16.2219 16.625 16.25C16.5703 16.6797 16.5703 16.6797 16.5 16.75C15.8615 16.8128 15.2926 16.5659 14.7971 16.1677C14.5766 15.9561 14.3869 15.7113 14.25 15.4375C14.0196 15.5143 13.9922 15.5845 13.8633 15.7852C13.4936 16.3269 12.9627 16.9378 12.2957 17.0962C12.0122 17.1081 11.795 17.03 11.5625 16.875C11.3436 16.6691 11.2345 16.4855 11.1875 16.1875C11.1195 16.2207 11.0515 16.2539 10.9814 16.2881C9.63643 16.9375 9.63643 16.9375 9.125 16.9375C9.22399 16.6725 9.42245 16.517 9.63281 16.3398C9.67086 16.3075 9.70891 16.2752 9.74811 16.2419C10.0451 15.9942 10.3537 15.7665 10.6719 15.5469C10.7367 15.5021 10.7367 15.5021 10.8028 15.4564C11.1085 15.25 11.1085 15.25 11.25 15.25C11.2552 15.1778 11.2603 15.1056 11.2656 15.0312C11.3013 14.7412 11.4014 14.4938 11.5625 14.25C11.6037 14.2294 11.645 14.2088 11.6875 14.1875C11.6875 14.3731 11.6875 14.5587 11.6875 14.75C12.3844 14.2021 12.3844 14.2021 12.707 13.4219C12.6781 13.0746 12.5376 12.8529 12.2969 12.6055C12.135 12.3569 12.1353 12.1015 12.1875 11.8125C12.2717 11.6707 12.2717 11.6707 12.375 11.5625C12.5547 11.5234 12.5547 11.5234 12.75 11.5625C13.0442 11.8293 13.1468 12.1226 13.25 12.5C13.1675 12.5 13.085 12.5 13 12.5C13.018 12.5364 13.0361 12.5728 13.0547 12.6104C13.2915 13.1334 13.3515 13.6373 13.1602 14.1875C12.8606 14.8412 12.3934 15.3377 11.8125 15.75C11.8362 15.9557 11.8362 15.9557 11.9375 16.125C12.2954 16.1608 12.53 16.0887 12.8125 15.875C13.2891 15.4839 13.75 14.9495 13.8503 14.3281C13.8632 13.7313 13.7361 13.1953 13.543 12.6355C13.5288 12.5942 13.5146 12.5529 13.5 12.5104C13.4592 12.3929 13.4168 12.2759 13.3743 12.1589C13.3092 11.9256 13.2924 11.7409 13.3125 11.5C13.4375 11.3164 13.4375 11.3164 13.5625 11.1875Z" fill="#FAFCFA"/>
<path d="M23.375 7.875C23.6508 7.96204 23.794 8.08942 23.9844 8.30469C24.0574 8.38566 24.0574 8.38566 24.1318 8.46826C24.241 8.61302 24.2879 8.69835 24.3125 8.875C24.2713 8.875 24.23 8.875 24.1875 8.875C24.2288 8.97812 24.27 9.08125 24.3125 9.1875C24.3103 9.1137 24.3082 9.0399 24.3059 8.96387C24.3042 8.86654 24.3024 8.76921 24.3008 8.67188C24.2992 8.62329 24.2976 8.57471 24.296 8.52466C24.2914 8.16063 24.2914 8.16063 24.407 7.96582C24.4377 7.93585 24.4684 7.90588 24.5 7.875C24.7582 7.96105 24.7852 8.09048 24.9039 8.32458C24.9292 8.37603 24.9545 8.42747 24.9805 8.48047C25.0065 8.5307 25.0324 8.58094 25.0592 8.63269C25.1978 8.91106 25.2855 9.11873 25.25 9.4375C25.2088 9.4375 25.1675 9.4375 25.125 9.4375C25.0489 10.192 25.1935 10.6352 25.625 11.25C25.6456 11.2706 25.6663 11.2912 25.6875 11.3125C25.6495 10.693 25.5662 10.0901 25.4608 9.47888C25.2667 8.29188 25.2667 8.29188 25.47 7.97874C25.5005 7.94451 25.531 7.91027 25.5625 7.875C25.6795 7.89307 25.6795 7.89307 25.8125 7.9375C26.1108 8.4256 26.2883 8.98811 26.25 9.5625C26.2088 9.5625 26.1675 9.5625 26.125 9.5625C26.208 10.4128 26.3222 11.0344 26.7859 11.7688C26.875 11.9375 26.875 11.9375 26.875 12.1875C26.7925 12.1875 26.71 12.1875 26.625 12.1875C26.6376 12.7831 26.7821 13.1478 27.1016 13.6367C27.4898 14.2387 27.515 14.7381 27.4375 15.4375C27.3963 15.4375 27.355 15.4375 27.3125 15.4375C27.1888 15.19 27.065 14.9425 26.9375 14.6875C26.9362 14.7623 26.9349 14.837 26.9336 14.9141C26.9329 14.9561 26.9322 14.9982 26.9314 15.0415C26.934 15.1908 26.934 15.1908 26.9683 15.3477C27.0077 15.6148 27.0114 15.8752 27.0127 16.1448C27.0131 16.2006 27.0134 16.2564 27.0138 16.3139C27.0144 16.4318 27.0148 16.5497 27.015 16.6677C27.0156 16.8456 27.0176 17.0234 27.0195 17.2013C27.0294 18.9013 27.0294 18.9013 26.4883 19.5352C26.0951 19.8759 25.7606 20.0733 25.2344 20.0664C25.1786 20.0658 25.1229 20.0653 25.0654 20.0647C25.0021 20.0636 25.0021 20.0636 24.9375 20.0625C24.9169 19.98 24.8963 19.8975 24.875 19.8125C25.5604 19.1875 25.5604 19.1875 25.875 19.1875C25.9 19.133 25.9 19.133 25.9254 19.0775C26 18.9375 26 18.9375 26.0933 18.822C26.4386 18.3934 26.4215 17.9976 26.4024 17.4648C26.4006 17.381 26.399 17.2972 26.3976 17.2133C26.3924 16.9754 26.3844 16.7378 26.375 16.5C26.3728 16.4395 26.3705 16.3789 26.3682 16.3165C26.39 15.8421 26.39 15.8421 26.25 15.4375C26.2088 15.4994 26.1675 15.5613 26.125 15.625C26.0838 15.625 26.0425 15.625 26 15.625C25.9977 15.5448 25.9977 15.5448 25.9953 15.463C25.9566 14.0742 25.9566 14.0742 25.875 12.6875C25.8338 12.6875 25.7925 12.6875 25.75 12.6875C25.7469 12.7274 25.7439 12.7673 25.7407 12.8083C25.7337 12.8858 25.7337 12.8858 25.7266 12.9648C25.72 13.0421 25.72 13.0421 25.7134 13.1208C25.7048 13.1635 25.6963 13.2061 25.6875 13.25C25.6256 13.2809 25.6256 13.2809 25.5625 13.3125C25.5587 13.2643 25.5549 13.2161 25.551 13.1665C25.5458 13.1038 25.5406 13.0411 25.5352 12.9766C25.5301 12.9142 25.525 12.8518 25.5198 12.7876C25.5094 12.6263 25.5094 12.6263 25.4375 12.5C25.4352 12.5968 25.4352 12.5968 25.4328 12.6956C25.4268 12.9383 25.4206 13.1809 25.4142 13.4235C25.4116 13.528 25.4089 13.6324 25.4064 13.7368C25.3634 15.5116 25.3634 15.5116 24.918 15.957C24.6955 16.0967 24.5774 16.1382 24.3125 16.125C24.0394 15.9663 23.7895 15.8059 23.6875 15.5C23.5844 15.5 23.4813 15.5 23.375 15.5C23.2038 15.8595 23.1066 16.2261 23.01 16.6121C22.933 16.825 22.8665 16.9259 22.6875 17.0625C22.3989 17.0788 22.2302 17.0079 22.0195 16.8203C21.6624 16.4269 21.5202 15.9275 21.5413 15.4023C21.5762 15.1517 21.6551 14.9213 21.75 14.6875C21.7706 14.6875 21.7913 14.6875 21.8125 14.6875C21.8186 14.7441 21.8248 14.8008 21.8311 14.8591C21.895 15.5315 21.895 15.5315 22.1875 16.125C22.3479 16.174 22.3479 16.174 22.5 16.1875C22.5317 16.1135 22.5635 16.0396 22.5962 15.9634C23.1529 14.6791 23.1529 14.6791 23.375 14.4375C23.5422 14.3909 23.5422 14.3909 23.6875 14.375C23.8059 14.5207 23.9225 14.6663 24.031 14.8196C24.0795 14.8876 24.0795 14.8876 24.1289 14.957C24.1593 15.0006 24.1897 15.0442 24.221 15.0891C24.2512 15.1216 24.2814 15.154 24.3125 15.1875C24.3744 15.1875 24.4363 15.1875 24.5 15.1875C24.6615 14.8343 24.7669 14.5153 24.76 14.1243C24.7588 14.0478 24.7576 13.9714 24.7564 13.8926C24.7554 13.8502 24.7543 13.8078 24.7533 13.7641C24.7497 13.612 24.7473 13.4598 24.7448 13.3076C24.7396 13.0122 24.7308 12.7171 24.7206 12.4218C24.7168 12.2992 24.7137 12.1764 24.7114 12.0537C24.6973 11.3195 24.6818 10.7697 24.1875 10.1875C24.1186 10.0904 24.0503 9.99273 23.9829 9.89453C23.8851 9.75794 23.7867 9.62174 23.6882 9.4856C23.6566 9.44136 23.6249 9.39713 23.5923 9.35156C23.564 9.31241 23.5357 9.27325 23.5065 9.23291C23.3905 9.05151 23.3673 8.89638 23.3689 8.68677C23.3691 8.63943 23.3693 8.5921 23.3695 8.54333C23.37 8.49423 23.3706 8.44512 23.3711 8.39453C23.3714 8.3447 23.3717 8.29487 23.372 8.24353C23.3727 8.12068 23.3738 7.99784 23.375 7.875Z" fill="#FAFCFA"/>
<path d="M15.25 7.6875C15.3119 7.70813 15.3738 7.72875 15.4375 7.75C15.4946 7.90698 15.4946 7.90698 15.5391 8.10547C15.5541 8.17016 15.569 8.23486 15.5845 8.30151C15.6726 8.733 15.7042 9.14622 15.7144 9.58545C15.7268 9.8929 15.7755 10.1047 15.9375 10.375C16.0885 10.3854 16.0885 10.3854 16.25 10.375C16.3942 10.2571 16.3942 10.2571 16.3945 10.0625C16.3841 9.70572 16.2835 9.33507 16.0889 9.03589C15.9826 8.84354 15.9729 8.71468 15.9727 8.49609C15.9715 8.4322 15.9703 8.36832 15.969 8.30249C16.0079 8.07964 16.0669 8.00555 16.25 7.875C16.409 7.84375 16.409 7.84375 16.5625 7.875C16.6751 7.98438 16.6751 7.98438 16.7695 8.125C16.8015 8.17141 16.8335 8.21781 16.8665 8.26562C16.8899 8.30172 16.9134 8.33781 16.9375 8.375C16.9581 8.18937 16.9788 8.00375 17 7.8125C17.25 7.75 17.25 7.75 17.3865 7.82642C17.6651 8.05383 17.9078 8.27527 18.125 8.5625C18.1311 8.52334 18.1373 8.48419 18.1436 8.44385C18.1529 8.39277 18.1623 8.34169 18.1719 8.28906C18.1806 8.23831 18.1893 8.18755 18.1983 8.13525C18.25 8 18.25 8 18.3799 7.91943C18.4394 7.89744 18.4394 7.89744 18.5 7.875C19.25 9.02002 19.25 9.02002 19.25 9.5625C19.2088 9.5625 19.1675 9.5625 19.125 9.5625C19.134 9.68621 19.1431 9.8099 19.1524 9.93359C19.1574 10.0025 19.1625 10.0714 19.1677 10.1423C19.1775 10.2575 19.1775 10.2575 19.1875 10.375C19.189 10.4183 19.1905 10.4615 19.192 10.5061C19.2166 10.9205 19.3739 11.2092 19.582 11.5625C19.6501 11.6836 19.7179 11.8049 19.7854 11.9263C19.8381 12.0207 19.8381 12.0207 19.8919 12.117C20.9394 14.0109 20.9394 14.0109 20.75 14.875C20.7088 14.9163 20.6675 14.9575 20.625 15C20.2083 14.1667 19.7917 13.3333 19.375 12.5C19.3748 12.5357 19.3746 12.5714 19.3743 12.6082C19.3717 12.9813 19.3674 13.3544 19.362 13.7276C19.3603 13.8666 19.359 14.0057 19.3581 14.1447C19.3567 14.3452 19.3538 14.5456 19.3506 14.7461C19.3505 14.8078 19.3504 14.8694 19.3504 14.933C19.3412 15.3696 19.2613 15.7111 18.9682 16.0449C18.875 16.125 18.875 16.125 18.75 16.125C18.7495 16.0791 18.749 16.0332 18.7485 15.9859C18.7436 15.5475 18.7381 15.1092 18.732 14.6708C18.729 14.4456 18.7261 14.2204 18.7236 13.9952C18.8068 12.0967 18.8068 12.0967 18.1797 10.3789C18.1433 10.3243 18.1068 10.2697 18.0693 10.2135C17.9647 10.0576 17.8576 9.90381 17.75 9.75C17.697 9.67071 17.6442 9.59122 17.5918 9.51147C17.5118 9.38986 17.4311 9.26872 17.3491 9.14844C17.2484 8.99757 17.1546 8.84377 17.0625 8.6875C17.0006 8.78031 17.0006 8.78031 16.9375 8.875C16.855 8.875 16.7725 8.875 16.6875 8.875C16.7379 9.07171 16.7889 9.26828 16.8399 9.46484C16.8542 9.52096 16.8686 9.57707 16.8834 9.63489C16.9043 9.71495 16.9043 9.71495 16.9256 9.79663C16.9383 9.84605 16.9511 9.89548 16.9642 9.9464C16.99 10.0623 16.99 10.0623 17.0625 10.125C17.2474 10.1406 17.2474 10.1406 17.4375 10.125C17.4994 10.0631 17.4994 10.0631 17.5625 10C17.6244 10 17.6863 10 17.75 10C17.725 10.3625 17.6817 10.5889 17.4375 10.875C17.2969 10.9297 17.2969 10.9297 17.1875 10.9375C17.1172 10.6406 17.1172 10.6406 17.1875 10.5C16.9734 10.5873 16.8891 10.6743 16.7774 10.875C16.6714 11.0639 16.6252 11.1249 16.4375 11.25C15.9961 11.292 15.9961 11.292 15.7852 11.1406C15.691 11.005 15.6482 10.9121 15.625 10.75C15.2934 10.8228 15.1301 10.9737 14.9072 11.2151C14.7526 11.3741 14.6786 11.3759 14.4492 11.3984C14.2314 11.3957 14.1921 11.3785 14.0078 11.2383C13.7619 10.9128 13.7279 10.6257 13.711 10.2305C13.7085 10.1842 13.7061 10.1379 13.7036 10.0902C13.6978 9.97683 13.6926 9.86342 13.6875 9.75C13.5301 9.9074 13.5202 10.0183 13.4727 10.2344C13.3921 10.5736 13.3148 10.8727 13.0625 11.125C12.918 11.1562 12.918 11.1562 12.75 11.125C12.6142 10.9991 12.5339 10.9037 12.4375 10.75C12.4127 10.7111 12.3879 10.6722 12.3623 10.6321C12.0872 10.0925 12.1379 9.40332 12.1875 8.8125C12.2081 8.75063 12.2288 8.68875 12.25 8.625C12.3119 8.64562 12.3738 8.66625 12.4375 8.6875C12.4845 8.82932 12.4845 8.82932 12.5176 9.01514C12.5302 9.08177 12.5429 9.14839 12.5559 9.21704C12.5684 9.28721 12.5809 9.35739 12.5938 9.42969C12.6185 9.56767 12.6439 9.70553 12.6699 9.84326C12.6809 9.90472 12.6918 9.96619 12.703 10.0295C12.7529 10.1972 12.8036 10.266 12.9375 10.375C12.9505 10.3122 12.9635 10.2495 12.9768 10.1848C13.114 9.56182 13.2931 8.79683 13.8125 8.375C13.9414 8.37109 13.9414 8.37109 14.0625 8.4375C14.2147 8.77422 14.2124 9.11378 14.2227 9.47656C14.2264 9.59327 14.2304 9.70997 14.2346 9.82666C14.2361 9.87795 14.2376 9.92924 14.2392 9.98209C14.2496 10.1198 14.2747 10.2424 14.3125 10.375C14.3924 10.3853 14.4724 10.3956 14.5547 10.4062C14.5997 10.4121 14.6446 10.4179 14.6909 10.4238C14.8128 10.4398 14.8128 10.4398 14.9375 10.4375C14.9569 10.3872 14.9762 10.337 14.9961 10.2852C15.0625 10.125 15.0625 10.125 15.125 10.0625C15.133 9.90285 15.1366 9.74563 15.1367 9.58594C15.1379 9.52032 15.1379 9.52032 15.1391 9.45337C15.1399 9.15607 15.0897 8.91086 15 8.625C14.9408 8.23932 15.0364 8.00795 15.25 7.6875Z" fill="#F9FBF9"/>
<path d="M22.125 21.8125C22.1869 21.8125 22.2487 21.8125 22.3125 21.8125C22.3125 21.8744 22.3125 21.9363 22.3125 22C22.4362 22.0309 22.4362 22.0309 22.5625 22.0625C22.5419 22.2069 22.5212 22.3512 22.5 22.5C22.7578 22.5106 23.0156 22.521 23.2734 22.5312C23.3457 22.5342 23.418 22.5372 23.4924 22.5403C23.8718 22.5553 24.2487 22.5652 24.6283 22.5548C24.75 22.5625 24.75 22.5625 24.9023 22.6523C25.138 23.0388 25.2317 23.4255 25.1875 23.875C25.0469 24.2266 25.0469 24.2266 24.875 24.3125C24.7292 24.315 24.5833 24.3152 24.4375 24.3125C24.4169 24.2506 24.3962 24.1888 24.375 24.125C24.1137 24.1324 23.8524 24.1402 23.5911 24.1483C23.5023 24.151 23.4135 24.1536 23.3247 24.1561C23.1967 24.1597 23.0687 24.1637 22.9407 24.1677C22.8638 24.17 22.7868 24.1723 22.7076 24.1747C22.5276 24.1858 22.3628 24.2091 22.1875 24.25C22.0609 24.0407 22.0489 23.8831 22.0547 23.6406C22.0558 23.5791 22.0569 23.5175 22.0581 23.4541C22.0596 23.4074 22.061 23.3606 22.0625 23.3125C21.9962 23.3128 21.9299 23.3132 21.8616 23.3135C20.2465 23.3219 18.6315 23.328 17.0164 23.3319C16.2353 23.3339 15.4543 23.3365 14.6733 23.3408C13.9924 23.3445 13.3114 23.3469 12.6305 23.3478C12.2701 23.3483 11.9097 23.3494 11.5493 23.3521C11.2097 23.3547 10.8702 23.3555 10.5306 23.3549C10.4063 23.355 10.282 23.3558 10.1578 23.3572C9.32833 23.3664 8.76365 23.2928 8.08594 22.7734C7.9511 22.6386 7.8903 22.5442 7.8125 22.375C8.4194 22.3721 9.02588 22.3733 9.63264 22.3874C9.68826 22.3887 9.74387 22.39 9.80116 22.3913C9.91996 22.3941 10.0388 22.3969 10.1575 22.3997C11.6579 22.4342 13.1582 22.4479 14.6589 22.4573C14.7129 22.4576 14.7669 22.458 14.8225 22.4583C15.4867 22.4624 16.151 22.4662 16.8152 22.4698C17.3892 22.473 17.9632 22.4764 18.5371 22.4798C19.7123 22.4868 20.8874 22.4935 22.0625 22.5C22.0419 22.4588 22.0212 22.4175 22 22.375C21.9883 22.1562 21.9883 22.1562 22 21.9375C22.0413 21.8962 22.0825 21.855 22.125 21.8125Z" fill="#FDFDFC"/>
<path d="M20.625 8C20.8125 8.0625 20.8125 8.0625 20.8739 8.16217C20.8913 8.20437 20.9086 8.24656 20.9265 8.29004C20.9456 8.33636 20.9648 8.38269 20.9845 8.43042C21.0134 8.50353 21.0134 8.50353 21.043 8.57812C21.063 8.6259 21.083 8.67368 21.1036 8.7229C21.2029 8.96793 21.2786 9.16815 21.25 9.4375C21.1675 9.45812 21.085 9.47875 21 9.5C21.0137 9.60339 21.0137 9.60339 21.0277 9.70888C21.0621 9.96918 21.0962 10.2295 21.1301 10.4899C21.1447 10.6017 21.1594 10.7136 21.1743 10.8254C21.3049 11.8108 21.3878 12.7876 21.3934 13.7823C21.3942 13.8704 21.3955 13.9584 21.3973 14.0465C21.4181 15.0525 21.1909 15.9487 20.4924 16.7063C20.2073 16.9666 19.9783 17.1075 19.5898 17.1484C19.375 17.125 19.375 17.125 19.2227 17.0156C19.125 16.875 19.125 16.875 19.125 16.625C19.2649 16.5269 19.2649 16.5269 19.457 16.4297C19.997 16.1326 20.5145 15.7377 20.8125 15.1875C20.8474 14.9789 20.8432 14.7749 20.8376 14.564C20.8368 14.5017 20.8359 14.4395 20.8351 14.3754C20.8169 13.5317 20.7364 12.6915 20.6602 11.8516C20.6455 11.6852 20.631 11.5189 20.6166 11.3525C20.5477 10.5494 20.5477 10.5494 20.4649 9.74756C20.4357 9.48405 20.4238 9.22575 20.4219 8.96094C20.4206 8.91646 20.4193 8.87199 20.418 8.82617C20.4156 8.50548 20.4818 8.28709 20.625 8Z" fill="#F8FBF8"/>
<path d="M21.625 7.9375C21.6663 7.9375 21.7075 7.9375 21.75 7.9375C21.7846 8.01202 21.8193 8.08655 21.855 8.16333C21.9007 8.26123 21.9464 8.35913 21.9922 8.45703C22.015 8.50614 22.0378 8.55524 22.0613 8.60583C22.0834 8.65317 22.1056 8.7005 22.1284 8.74927C22.1487 8.7928 22.169 8.83633 22.1899 8.88118C22.2546 9.01505 22.2546 9.01505 22.375 9.1875C22.3828 9.35547 22.3828 9.35547 22.375 9.5C22.2925 9.5 22.21 9.5 22.125 9.5C22.1294 9.5343 22.1338 9.56861 22.1384 9.60395C22.1852 9.96703 22.2318 10.3301 22.2784 10.6932C22.2957 10.828 22.313 10.9628 22.3304 11.0976C22.6473 13.558 22.6473 13.558 22.6484 14.2812C22.65 14.3365 22.6515 14.3918 22.6531 14.4487C22.6552 14.9387 22.5218 15.3423 22.25 15.75C22.2088 15.75 22.1675 15.75 22.125 15.75C22.1225 15.6933 22.12 15.6366 22.1175 15.5782C22.0168 12.7024 22.0168 12.7024 21.4959 9.88379C21.42 9.58827 21.4168 9.29984 21.418 8.99609C21.417 8.9424 21.416 8.8887 21.4149 8.83337C21.4147 8.48658 21.4662 8.24636 21.625 7.9375Z" fill="#F7FBF7"/>
<path d="M9.31249 13.375C9.35374 13.375 9.39499 13.375 9.43749 13.375C9.42355 14.2914 9.23377 15.0478 8.58837 15.7297C8.24287 16.0566 7.81447 16.2584 7.33593 16.2773C6.95449 16.2565 6.67173 16.1575 6.3828 15.9062C6.01537 15.3998 6.12463 14.7069 6.18749 14.125C6.20812 14.125 6.22874 14.125 6.24999 14.125C6.25611 14.1928 6.26224 14.2607 6.26854 14.3306C6.27793 14.4209 6.28737 14.5112 6.29687 14.6016C6.30073 14.6461 6.3046 14.6907 6.30858 14.7366C6.35156 15.1269 6.49307 15.3715 6.77733 15.6484C7.1217 15.8055 7.44086 15.8084 7.81249 15.75C8.03338 15.6573 8.1985 15.5357 8.37499 15.375C8.4102 15.3433 8.44541 15.3117 8.48168 15.2791C8.90842 14.8393 9.0807 14.2294 9.15893 13.6362C9.18749 13.5 9.18749 13.5 9.31249 13.375Z" fill="#4A9D42"/>
<path d="M11.9375 8C12.032 8.18902 12.0108 8.3539 12 8.5625C11.9768 8.60761 11.9536 8.65273 11.9297 8.69922C11.9026 8.75529 11.9026 8.75529 11.875 8.8125C11.9315 8.94408 11.9315 8.94408 12 9.0625C11.8024 9.3008 11.6028 9.53714 11.4006 9.77157C11.3254 9.85983 11.2523 9.94989 11.1797 10.0403C11.0054 10.2418 10.8978 10.361 10.6289 10.405C10.4577 10.4061 10.2946 10.3975 10.125 10.375C10.2124 10.1748 10.3139 10.0494 10.4744 9.9021C10.5182 9.86145 10.5621 9.82081 10.6073 9.77893C10.6531 9.73715 10.6989 9.69538 10.7461 9.65234C10.8365 9.56895 10.9269 9.48553 11.0173 9.4021C11.0575 9.36539 11.0976 9.32869 11.1389 9.29088C11.1756 9.25676 11.2122 9.22265 11.25 9.1875C11.2857 9.15729 11.3215 9.12708 11.3583 9.09596C11.464 8.9886 11.464 8.9886 11.4375 8.75C11.3756 8.72937 11.3138 8.70875 11.25 8.6875C11.2115 8.17736 11.2115 8.17736 11.3477 7.99219C11.5633 7.91479 11.7178 7.94611 11.9375 8Z" fill="#F6FAF6"/>
<path d="M8.0625 7.9375C8.12437 7.95813 8.18625 7.97875 8.25 8C8.25337 8.11196 8.25579 8.22395 8.25781 8.33594C8.25926 8.3983 8.26071 8.46065 8.2622 8.5249C8.25 8.6875 8.25 8.6875 8.125 8.8125C8.06356 9.35665 8.25996 9.76993 8.5 10.25C8.50434 10.3463 8.50528 10.4427 8.5039 10.5391C8.50334 10.5901 8.50278 10.6412 8.50219 10.6938C8.50147 10.733 8.50074 10.7722 8.5 10.8125C8.26513 10.7918 8.06816 10.7214 7.88843 10.5649C7.7583 10.3465 7.77257 10.1079 7.76643 9.85852C7.75867 9.56071 7.70935 9.32609 7.60205 9.05054C7.55141 8.90581 7.5478 8.77687 7.5625 8.625C7.52125 8.625 7.48 8.625 7.4375 8.625C7.33704 8.42409 7.37141 8.22274 7.375 8C7.43687 8 7.49875 8 7.5625 8C7.5625 8.06188 7.5625 8.12375 7.5625 8.1875C7.58828 8.15656 7.61406 8.12562 7.64062 8.09375C7.75 8 7.75 8 8 8C8.02062 7.97937 8.04125 7.95875 8.0625 7.9375Z" fill="#469B3E"/>
<path d="M23.7851 10.2578C23.9375 10.3125 23.9375 10.3125 24.0625 10.5C24.0674 10.6458 24.068 10.7918 24.0625 10.9375C23.98 10.9375 23.8975 10.9375 23.8125 10.9375C23.7919 11.2675 23.7712 11.5975 23.75 11.9375C23.3178 11.8511 23.1379 11.62 22.8789 11.2774C22.7968 11.089 22.7899 10.9534 22.8125 10.75C22.8537 10.7088 22.895 10.6675 22.9375 10.625C23.1015 10.6484 23.1015 10.6484 23.25 10.6875C23.2706 10.7494 23.2912 10.8113 23.3125 10.875C23.3744 10.875 23.4362 10.875 23.5 10.875C23.4787 10.7725 23.4787 10.7725 23.457 10.668C23.4375 10.4375 23.4375 10.4375 23.5078 10.3125C23.625 10.25 23.625 10.25 23.7851 10.2578Z" fill="#F8FBF8"/>
<path d="M14.8087 14.2463C14.8812 14.2545 14.8812 14.2545 14.9551 14.2629C15.0077 14.2687 15.0603 14.2744 15.1145 14.2804C15.197 14.2905 15.197 14.2905 15.2813 14.3008C15.3363 14.3068 15.3913 14.3128 15.448 14.319C15.8561 14.3655 15.8561 14.3655 16 14.4375C16 14.52 16 14.6025 16 14.6875C15.9407 14.7158 15.8814 14.7442 15.8203 14.7734C15.6248 14.8626 15.6248 14.8626 15.5 15C15.4712 15.152 15.4712 15.152 15.4609 15.3203C15.4563 15.3772 15.4516 15.4341 15.4468 15.4927C15.4437 15.5363 15.4407 15.58 15.4375 15.625C15.1724 15.5944 15.0636 15.529 14.8945 15.3242C14.8582 15.2813 14.8219 15.2383 14.7844 15.1941C14.5793 14.9156 14.5366 14.7251 14.5625 14.375C14.6875 14.25 14.6875 14.25 14.8087 14.2463Z" fill="#419839"/>
<path d="M6.625 12.375C6.66625 12.4987 6.7075 12.6225 6.75 12.75C6.50431 12.8825 6.25851 13.0149 6.01262 13.1471C5.92899 13.1921 5.84539 13.2371 5.76183 13.2822C5.64167 13.347 5.52141 13.4117 5.40112 13.4763C5.32879 13.5152 5.25646 13.5542 5.18193 13.5943C5 13.6875 5 13.6875 4.8125 13.75C4.95402 13.1839 5.33166 12.8051 5.8125 12.5C6.08488 12.3502 6.32058 12.3647 6.625 12.375Z" fill="#F6FAF6"/>
<path d="M4.87498 14.75C4.89561 14.75 4.91623 14.75 4.93748 14.75C4.93748 15.245 4.93748 15.74 4.93748 16.25C4.97873 16.25 5.01998 16.25 5.06248 16.25C5.10373 16.1675 5.14498 16.085 5.18748 16C5.24936 16.0206 5.31123 16.0412 5.37498 16.0625C5.40197 16.4538 5.37045 16.6307 5.12498 16.9375C4.98061 16.9169 4.83623 16.8963 4.68748 16.875C4.55406 16.6033 4.53849 16.3482 4.53905 16.0508C4.53901 16.0038 4.53898 15.9568 4.53894 15.9084C4.5465 15.5246 4.62775 15.214 4.81248 14.875C4.83311 14.8337 4.85373 14.7925 4.87498 14.75Z" fill="#F6FAF6"/>
<path d="M24.5 12C24.5386 12.2315 24.5511 12.3636 24.415 12.5603C24.0769 12.9131 23.6719 13.1934 23.25 13.4375C23.2088 13.4375 23.1675 13.4375 23.125 13.4375C23.0864 13.2561 23.0734 13.1747 23.125 13C23.3103 12.7843 23.5274 12.6134 23.75 12.4375C23.8293 12.3716 23.8293 12.3716 23.9102 12.3044C24.2841 12 24.2841 12 24.5 12Z" fill="#F6FAF5"/>
<path d="M17.6875 15.625C17.6875 15.79 17.6875 15.955 17.6875 16.125C17.73 16.1147 17.7726 16.1044 17.8164 16.0938C18.026 16.0581 18.2252 16.0583 18.4375 16.0625C18.4581 16.145 18.4787 16.2275 18.5 16.3125C18.37 16.3651 18.2397 16.4171 18.1094 16.4688C18.0369 16.4978 17.9644 16.5268 17.8896 16.5566C17.6875 16.625 17.6875 16.625 17.4375 16.625C17.4169 16.4806 17.3963 16.3363 17.375 16.1875C17.2719 16.1669 17.1688 16.1463 17.0625 16.125C17.1787 15.7667 17.3012 15.625 17.6875 15.625Z" fill="#F5FAF5"/>
<path d="M22.5 23.375C23.0775 23.375 23.655 23.375 24.25 23.375C24.25 23.4988 24.25 23.6225 24.25 23.75C24.0644 23.75 23.8787 23.75 23.6875 23.75C23.6875 23.7088 23.6875 23.6675 23.6875 23.625C23.5431 23.625 23.3988 23.625 23.25 23.625C23.25 23.6662 23.25 23.7075 23.25 23.75C23.0025 23.75 22.755 23.75 22.5 23.75C22.5 23.6262 22.5 23.5025 22.5 23.375Z" fill="#52A14A"/>
<path d="M24.125 12.9375C24.1869 12.9375 24.2488 12.9375 24.3125 12.9375C24.5243 13.3428 24.6085 13.6683 24.5625 14.125C24.5131 14.2825 24.4505 14.4147 24.375 14.5625C24.3131 14.5625 24.2512 14.5625 24.1875 14.5625C24.0959 13.8301 24.0959 13.8301 24.0799 13.697C24.068 13.6052 24.0547 13.5135 24.04 13.4221C24.0217 13.3029 24.0103 13.1827 24 13.0625C24.0413 13.0212 24.0825 12.98 24.125 12.9375Z" fill="#EBF4EA"/>
<path d="M25.4375 15.9375C25.7969 15.9297 25.7969 15.9297 25.9375 16C25.9048 16.1727 25.8682 16.3329 25.8125 16.5C25.9156 16.5 26.0188 16.5 26.125 16.5C26.125 16.5825 26.125 16.665 26.125 16.75C26.0384 16.8045 25.951 16.8576 25.8633 16.9102C25.8147 16.9399 25.7661 16.9696 25.7161 17.0002C25.5323 17.0748 25.4372 17.0555 25.25 17C25.2863 16.7897 25.3522 16.7103 25.5 16.5625C25.5447 16.431 25.5447 16.431 25.5625 16.3125C25.5006 16.2919 25.4387 16.2713 25.375 16.25C25.3956 16.1469 25.4163 16.0438 25.4375 15.9375Z" fill="#F2F8F2"/>
<path d="M15.0625 11.5625C15.1038 11.5831 15.145 11.6037 15.1875 11.625C15.1875 11.6869 15.1875 11.7488 15.1875 11.8125C15.2287 11.8125 15.27 11.8125 15.3125 11.8125C15.3125 11.7506 15.3125 11.6887 15.3125 11.625C15.3744 11.625 15.4363 11.625 15.5 11.625C15.5 11.6869 15.5 11.7488 15.5 11.8125C15.5412 11.8125 15.5825 11.8125 15.625 11.8125C15.6456 11.73 15.6662 11.6475 15.6875 11.5625C15.7494 11.5831 15.8112 11.6037 15.875 11.625C15.8974 12.0802 15.8974 12.0802 15.8125 12.25C15.6089 12.3518 15.41 12.3455 15.1875 12.3125C15.0664 12.2461 15.0664 12.2461 15 12.125C14.9492 11.9023 14.9492 11.9023 14.9375 11.6875C14.9788 11.6462 15.02 11.605 15.0625 11.5625Z" fill="#F3F8F3"/>
<path d="M20.125 10.0625C20.1869 10.0831 20.2488 10.1037 20.3125 10.125C20.3424 10.5139 20.3424 10.5139 20.2188 10.7148C19.9826 10.8624 19.8389 10.8476 19.5625 10.8125C19.4375 10.7109 19.4375 10.7109 19.375 10.5625C19.3633 10.3594 19.3633 10.3594 19.375 10.1875C19.4575 10.1669 19.54 10.1463 19.625 10.125C19.625 10.1869 19.625 10.2488 19.625 10.3125C19.6663 10.3125 19.7075 10.3125 19.75 10.3125C19.75 10.2506 19.75 10.1887 19.75 10.125C19.8119 10.125 19.8738 10.125 19.9375 10.125C19.9375 10.1869 19.9375 10.2488 19.9375 10.3125C19.9788 10.3125 20.02 10.3125 20.0625 10.3125C20.0831 10.23 20.1038 10.1475 20.125 10.0625Z" fill="#F1F7F0"/>
<path d="M8.06251 7.9375C8.12438 7.95813 8.18626 7.97875 8.25001 8C8.2724 8.45522 8.2724 8.45522 8.18751 8.625C7.98363 8.72694 7.78529 8.71999 7.56251 8.6875C7.43751 8.625 7.43751 8.625 7.37501 8.5C7.3606 8.33007 7.36659 8.17126 7.37501 8C7.43688 8 7.49876 8 7.56251 8C7.56251 8.06188 7.56251 8.12375 7.56251 8.1875C7.58829 8.15656 7.61407 8.12562 7.64063 8.09375C7.75001 8 7.75001 8 8.00001 8C8.02063 7.97937 8.04126 7.95875 8.06251 7.9375Z" fill="#F5F9F5"/>
<path d="M19.4375 8.0625C19.5781 8.03906 19.5781 8.03906 19.75 8.0625C19.9462 8.24805 19.9917 8.36367 20.022 8.63232C20.0312 9.00048 20.0365 9.25647 19.8125 9.5625C19.7919 9.5625 19.7713 9.5625 19.75 9.5625C19.7491 9.51867 19.7482 9.47484 19.7473 9.42969C19.7276 9.03738 19.6669 8.80127 19.4382 8.48291C19.375 8.375 19.375 8.375 19.3867 8.1875C19.4035 8.14625 19.4202 8.105 19.4375 8.0625Z" fill="#F3F8F2"/>
<path d="M11.5 10.1875C11.5 10.3937 11.5 10.6 11.5 10.8125C11.6237 10.7506 11.7475 10.6888 11.875 10.625C11.8408 10.8359 11.8091 10.9426 11.6875 11.125C11.4727 11.1523 11.4727 11.1523 11.25 11.125C11.125 11.0273 11.125 11.0273 11.0625 10.875C11.0744 10.5422 11.1112 10.1875 11.5 10.1875Z" fill="#EEF5ED"/>
<path d="M6.5 9.375C6.52063 9.375 6.54125 9.375 6.5625 9.375C6.65238 9.87973 6.706 10.3621 6.6875 10.875C6.605 10.8956 6.5225 10.9162 6.4375 10.9375C6.31968 10.7019 6.36346 10.4155 6.36329 10.1562C6.36252 10.0953 6.36176 10.0343 6.36097 9.97144C6.36085 9.91319 6.36072 9.85494 6.3606 9.79492C6.36034 9.74139 6.36009 9.68785 6.35982 9.63269C6.375 9.5 6.375 9.5 6.5 9.375Z" fill="#52A14B"/>
<path d="M5.25 7.875C5.45633 7.89173 5.53906 7.91002 5.67578 8.07031C5.78192 8.32728 5.79791 8.54624 5.70752 8.81274C5.6627 8.91839 5.61298 9.02194 5.5625 9.125C5.54187 9.125 5.52125 9.125 5.5 9.125C5.49315 9.08351 5.4863 9.04202 5.47925 8.99927C5.41789 8.64657 5.41789 8.64657 5.26953 8.32422C5.1875 8.1875 5.1875 8.1875 5.20703 8.01172C5.22121 7.9666 5.23539 7.92148 5.25 7.875Z" fill="#F3F8F3"/>
<path d="M14.5625 7.75C14.6244 7.75 14.6862 7.75 14.75 7.75C14.7733 8.17127 14.7501 8.49291 14.5625 8.875C14.5006 8.89562 14.4387 8.91625 14.375 8.9375C14.3716 8.80861 14.3692 8.6797 14.3672 8.55078C14.3657 8.479 14.3643 8.40721 14.3628 8.33325C14.3755 8.11687 14.4029 7.9096 14.5625 7.75Z" fill="#F6FAF5"/>
<path d="M10.6875 13.625C10.8658 13.6434 10.9272 13.6758 11.0469 13.8125C11.1784 14.128 11.168 14.4309 11.0625 14.7539C11.0419 14.7939 11.0213 14.8338 11 14.875C10.9588 14.875 10.9175 14.875 10.875 14.875C10.8727 14.8283 10.8703 14.7815 10.8679 14.7334C10.8638 14.6718 10.8597 14.6103 10.8555 14.5469C10.8518 14.486 10.8482 14.4251 10.8445 14.3623C10.8093 14.1698 10.7445 14.0881 10.625 13.9375C10.6445 13.7656 10.6445 13.7656 10.6875 13.625Z" fill="#EDF5EC"/>
<path d="M13.1875 7.625C13.15 7.88717 13.0891 8.12562 13 8.375C13.0619 8.375 13.1237 8.375 13.1875 8.375C13.1328 8.61719 13.1328 8.61719 13.0625 8.6875C12.9584 8.69004 12.8541 8.69017 12.75 8.6875C12.6401 8.46774 12.6919 8.23263 12.75 8C12.9668 7.625 12.9668 7.625 13.1875 7.625Z" fill="#EEF5ED"/>
<path d="M7.12501 9.75C7.31265 10.0315 7.39494 10.2861 7.37501 10.625C7.31313 10.6044 7.25126 10.5838 7.18751 10.5625C7.08926 10.2678 7.03008 10.0538 7.12501 9.75Z" fill="#54A24D"/>
<path d="M8.25 12.6875C8.3325 12.6875 8.415 12.6875 8.5 12.6875C8.57031 12.9219 8.57031 12.9219 8.5 13.0625C8.39687 13.0625 8.29375 13.0625 8.1875 13.0625C8.14844 12.9453 8.14844 12.9453 8.125 12.8125C8.16625 12.7712 8.2075 12.73 8.25 12.6875Z" fill="#54A24D"/>
<path d="M16.8125 12.125C16.9672 12.1559 16.9672 12.1559 17.125 12.1875C17.1456 12.27 17.1662 12.3525 17.1875 12.4375C17.0844 12.4169 16.9813 12.3963 16.875 12.375C16.8544 12.2925 16.8338 12.21 16.8125 12.125Z" fill="#4FA048"/>
<path d="M24.3125 8.5625C24.3331 8.5625 24.3538 8.5625 24.375 8.5625C24.375 8.78938 24.375 9.01625 24.375 9.25C24.3131 9.20875 24.2512 9.1675 24.1875 9.125C24.1875 9.0425 24.1875 8.96 24.1875 8.875C24.2288 8.875 24.27 8.875 24.3125 8.875C24.2919 8.81313 24.2713 8.75125 24.25 8.6875C24.2706 8.64625 24.2912 8.605 24.3125 8.5625Z" fill="#6DB068"/>
<path d="M18.0625 9C18.1244 9 18.1863 9 18.25 9C18.2706 9.14437 18.2913 9.28875 18.3125 9.4375C18.1875 9.32422 18.1875 9.32422 18.0625 9.1875C18.0625 9.12562 18.0625 9.06375 18.0625 9Z" fill="#66AC60"/>
<path d="M11.5 8.375C11.5825 8.39563 11.665 8.41625 11.75 8.4375C11.75 8.52 11.75 8.6025 11.75 8.6875C11.6675 8.66688 11.585 8.64625 11.5 8.625C11.5 8.5425 11.5 8.46 11.5 8.375Z" fill="#54A24D"/>
</g>
<defs>
<clipPath id="clip0_6_3557">
<rect width="32" height="32" fill="white"/>
</clipPath>
</defs>
</svg>
