<svg width="32" height="32" viewBox="0 0 32 32" fill="none" xmlns="http://www.w3.org/2000/svg">
<g clip-path="url(#clip0_6_4272)">
<path d="M15.9768 -0.019294C16.0404 -0.0191593 16.104 -0.0190246 16.1696 -0.0188858C17.0827 -0.0157814 17.9784 -0.000100344 18.8752 0.187737C18.9362 0.200155 18.9971 0.212572 19.0599 0.225365C22.0837 0.857904 24.833 2.22769 27.0627 4.37524C27.1246 4.4345 27.1246 4.4345 27.1876 4.49496C27.7806 5.06649 28.3269 5.64757 28.8127 6.31274C28.8664 6.38468 28.92 6.45662 28.9736 6.52856C29.351 7.04041 29.6874 7.57182 30.0002 8.12524C30.0254 8.16944 30.0505 8.21364 30.0764 8.25918C30.8905 9.70514 31.4373 11.2783 31.7698 12.9026C31.779 12.9475 31.7882 12.9924 31.7977 13.0387C31.9835 14.0166 32.0235 14.9837 32.0198 15.9768C32.0196 16.0404 32.0195 16.104 32.0194 16.1696C32.0163 17.0827 32.0006 17.9784 31.8127 18.8752C31.7941 18.9666 31.7941 18.9666 31.7751 19.0599C31.1426 22.0837 29.7728 24.833 27.6252 27.0627C27.5857 27.1039 27.5462 27.1452 27.5055 27.1876C26.934 27.7806 26.3529 28.3269 25.6877 28.8127C25.6158 28.8664 25.5439 28.92 25.4719 28.9736C24.9601 29.351 24.4286 29.6874 23.8752 30.0002C23.831 30.0254 23.7868 30.0505 23.7413 30.0764C22.2953 30.8905 20.7221 31.4373 19.0979 31.7698C19.053 31.779 19.008 31.7882 18.9617 31.7977C18.0445 31.972 17.1367 32.022 16.2048 32.02C16.0211 32.0198 15.8374 32.0212 15.6537 32.0228C14.8179 32.0256 14.0119 31.9503 13.1877 31.8127C13.0811 31.7951 13.0811 31.7951 12.9724 31.7771C10.2682 31.2914 7.70255 30.0422 5.62524 28.2502C5.57867 28.2106 5.5321 28.171 5.48412 28.1301C4.64006 27.3919 3.8481 26.595 3.18774 25.6877C3.13421 25.6159 3.08066 25.544 3.02709 25.4722C2.64959 24.9603 2.31313 24.4287 2.00024 23.8752C1.9751 23.831 1.94996 23.7868 1.92407 23.7413C1.10998 22.2953 0.563174 20.7221 0.230706 19.0979C0.221496 19.053 0.212287 19.008 0.202798 18.9617C0.0169316 17.9838 -0.0230755 17.0168 -0.019294 16.0237C-0.0191593 15.9601 -0.0190246 15.8964 -0.0188858 15.8309C-0.0157814 14.9178 -0.000100344 14.0221 0.187737 13.1252C0.200155 13.0643 0.212572 13.0034 0.225365 12.9406C0.857904 9.91674 2.22769 7.16747 4.37524 4.93774C4.41475 4.89653 4.45425 4.85532 4.49496 4.81286C5.06649 4.21984 5.64757 3.6736 6.31274 3.18774C6.38468 3.13411 6.45662 3.08048 6.52856 3.02685C7.04041 2.6495 7.57182 2.31308 8.12524 2.00024C8.16944 1.9751 8.21364 1.94996 8.25918 1.92407C9.70514 1.10998 11.2783 0.563174 12.9026 0.230706C12.9475 0.221496 12.9924 0.212287 13.0387 0.202798C14.0166 0.0169316 14.9837 -0.0230755 15.9768 -0.019294Z" fill="#D80027"/>
<path d="M18.0625 18.0625C22.6206 18.0625 27.1788 18.0625 31.875 18.0625C31.833 18.609 31.7829 19.0901 31.6523 19.6133C31.6359 19.68 31.6194 19.7468 31.6025 19.8156C30.9084 22.5535 29.587 25.0254 27.625 27.0625C27.5855 27.1037 27.546 27.1449 27.5053 27.1874C26.9338 27.7804 26.3527 28.3266 25.6875 28.8125C25.6156 28.8661 25.5436 28.9198 25.4717 28.9734C24.9598 29.3507 24.4284 29.6872 23.875 30C23.8087 30.0377 23.8087 30.0377 23.7411 30.0762C22.2822 30.8975 20.6969 31.4424 19.0586 31.7773C19.0084 31.7876 18.9583 31.7979 18.9066 31.8084C18.6107 31.8648 18.3745 31.875 18.0625 31.875C18.0625 27.3169 18.0625 22.7587 18.0625 18.0625Z" fill="#EEECED"/>
<path d="M18.0625 0.125C18.609 0.16704 19.0901 0.217115 19.6133 0.347656C19.7134 0.372332 19.7134 0.372332 19.8156 0.397507C22.5535 1.09158 25.0254 2.41302 27.0625 4.375C27.1243 4.43426 27.1243 4.43426 27.1874 4.49472C27.7804 5.06625 28.3266 5.64733 28.8125 6.3125C28.8661 6.38444 28.9198 6.45638 28.9734 6.52832C29.3507 7.04017 29.6872 7.57159 30 8.125C30.0377 8.1913 30.0377 8.1913 30.0762 8.25894C30.8975 9.71779 31.4424 11.3031 31.7773 12.9414C31.7876 12.9916 31.7979 13.0417 31.8084 13.0934C31.8648 13.3893 31.875 13.6255 31.875 13.9375C27.3169 13.9375 22.7587 13.9375 18.0625 13.9375C18.0625 9.37938 18.0625 4.82125 18.0625 0.125Z" fill="#EEECED"/>
<path d="M13.9375 0.125C13.9375 4.68313 13.9375 9.24125 13.9375 13.9375C9.37938 13.9375 4.82125 13.9375 0.125 13.9375C0.16704 13.391 0.217115 12.9099 0.347656 12.3867C0.372332 12.2866 0.372332 12.2866 0.397507 12.1844C1.09158 9.44649 2.41302 6.97457 4.375 4.9375C4.41451 4.89629 4.45402 4.85508 4.49472 4.81262C5.06625 4.21961 5.64733 3.67336 6.3125 3.1875C6.38444 3.13387 6.45638 3.08024 6.52832 3.02661C7.04017 2.64926 7.57159 2.31284 8.125 2C8.1692 1.97486 8.2134 1.94973 8.25894 1.92383C9.71779 1.10249 11.3031 0.557605 12.9414 0.222656C12.9916 0.212399 13.0417 0.202142 13.0934 0.191574C13.3893 0.135214 13.6255 0.125 13.9375 0.125Z" fill="#EEECED"/>
<path d="M0.125 18.0625C4.68313 18.0625 9.24125 18.0625 13.9375 18.0625C13.9375 22.6206 13.9375 27.1788 13.9375 31.875C10.6779 31.875 7.22656 29.8297 4.9375 27.625C4.89629 27.5855 4.85508 27.546 4.81262 27.5053C4.21961 26.9338 3.67336 26.3527 3.1875 25.6875C3.13387 25.6156 3.08024 25.5436 3.02661 25.4717C2.64926 24.9598 2.31284 24.4284 2 23.875C1.97486 23.8308 1.94973 23.7866 1.92383 23.7411C1.10249 22.2822 0.557605 20.6969 0.222656 19.0586C0.212399 19.0084 0.202142 18.9583 0.191574 18.9066C0.135214 18.6107 0.125 18.3745 0.125 18.0625Z" fill="#EEECED"/>
<path d="M23.1875 20.1875C25.91 20.1875 28.6325 20.1875 31.4375 20.1875C31.367 20.7511 31.367 20.7511 31.293 20.9658C31.2764 21.0142 31.2597 21.0625 31.2426 21.1123C31.2244 21.1629 31.2062 21.2135 31.1875 21.2656C31.1585 21.3468 31.1585 21.3468 31.129 21.4297C30.5793 22.9377 29.8412 24.6057 28.6875 25.75C27.9702 25.0342 27.2531 24.3181 26.5362 23.6019C26.2033 23.2694 25.8704 22.9369 25.5374 22.6046C25.2472 22.315 24.9571 22.0254 24.6672 21.7356C24.5136 21.582 24.3599 21.4285 24.2061 21.2752C24.0347 21.1043 23.8635 20.9331 23.6924 20.762C23.641 20.7108 23.5895 20.6596 23.5365 20.6068C23.4903 20.5604 23.444 20.5141 23.3963 20.4663C23.3557 20.4258 23.3152 20.3853 23.2734 20.3436C23.1875 20.25 23.1875 20.25 23.1875 20.1875Z" fill="#1D86FE"/>
<path d="M0.5625 20.1875C3.285 20.1875 6.0075 20.1875 8.8125 20.1875C8.39062 20.6797 8.39062 20.6797 8.19784 20.8722C8.1542 20.9159 8.11056 20.9596 8.0656 21.0047C7.99574 21.0742 7.99574 21.0742 7.92447 21.1451C7.87443 21.1952 7.82439 21.2452 7.77283 21.2968C7.60863 21.461 7.44421 21.6249 7.27979 21.7888C7.1654 21.9031 7.05104 22.0174 6.93668 22.1317C6.66721 22.4009 6.39759 22.67 6.12791 22.9391C5.82065 23.2457 5.51356 23.5524 5.2065 23.8591C4.57536 24.4896 3.94401 25.1199 3.3125 25.75C3.13475 25.5742 2.96718 25.4081 2.82739 25.2004C2.78296 25.1345 2.78296 25.1345 2.73763 25.0673C2.69154 24.9972 2.69154 24.9972 2.64453 24.9258C2.61192 24.8763 2.5793 24.8269 2.5457 24.776C1.74057 23.5397 0.5625 21.6985 0.5625 20.1875Z" fill="#1D86FE"/>
<path d="M28.6875 6.25C28.8652 6.42579 29.0328 6.59191 29.1726 6.79956C29.2022 6.8435 29.2319 6.88744 29.2624 6.93271C29.2931 6.97941 29.3238 7.02611 29.3555 7.07422C29.3881 7.12366 29.4207 7.17309 29.4543 7.22403C30.2594 8.46031 31.4375 10.3015 31.4375 11.8125C28.715 11.8125 25.9925 11.8125 23.1875 11.8125C23.6094 11.3203 23.6094 11.3203 23.8022 11.1278C23.8458 11.0841 23.8894 11.0404 23.9344 10.9953C23.981 10.949 24.0275 10.9026 24.0755 10.8549C24.1506 10.7798 24.1506 10.7798 24.2272 10.7032C24.3914 10.539 24.5558 10.3751 24.7202 10.2112C24.8346 10.0969 24.949 9.98264 25.0633 9.86835C25.3328 9.59908 25.6024 9.32996 25.8721 9.06091C26.1794 8.75435 26.4864 8.44761 26.7935 8.14085C27.4246 7.51037 28.056 6.88011 28.6875 6.25Z" fill="#1D86FE"/>
<path d="M3.25 6.25C3.58603 6.53056 3.8986 6.82717 4.20763 7.13704C4.2827 7.21195 4.2827 7.21195 4.3593 7.28838C4.52346 7.45227 4.6874 7.61638 4.85132 7.78052C4.96559 7.89474 5.07987 8.00896 5.19415 8.12317C5.43292 8.36184 5.67157 8.60063 5.91014 8.83949C6.1862 9.1159 6.46249 9.39207 6.7389 9.66814C7.00511 9.93403 7.27114 10.2001 7.5371 10.4662C7.65027 10.5794 7.76348 10.6926 7.87674 10.8057C8.03431 10.9631 8.19167 11.1207 8.34898 11.2784C8.39622 11.3255 8.44345 11.3726 8.49212 11.4212C8.53461 11.4638 8.5771 11.5065 8.62088 11.5504C8.6581 11.5877 8.69533 11.6249 8.73368 11.6633C8.8125 11.75 8.8125 11.75 8.8125 11.8125C6.09 11.8125 3.3675 11.8125 0.5625 11.8125C0.632956 11.2489 0.632956 11.2489 0.707031 11.0342C0.723648 10.9858 0.740265 10.9375 0.757385 10.8877C0.775573 10.8371 0.793761 10.7865 0.8125 10.7344C0.831816 10.6802 0.851132 10.6261 0.871033 10.5703C1.43457 9.02435 2.20523 7.52748 3.25 6.25Z" fill="#1D86FE"/>
<path d="M20.1875 0.5625C20.7511 0.632956 20.7511 0.632956 20.9658 0.707031C21.0142 0.723648 21.0625 0.740265 21.1123 0.757385C21.1629 0.775573 21.2135 0.793761 21.2656 0.8125C21.3468 0.841474 21.3468 0.841474 21.4297 0.871033C22.9377 1.42073 24.6057 2.15876 25.75 3.3125C25.0342 4.0298 24.3181 4.74692 23.6019 5.46383C23.2694 5.79669 22.9369 6.1296 22.6046 6.46265C22.315 6.75282 22.0254 7.04289 21.7356 7.33282C21.582 7.48644 21.4285 7.64012 21.2752 7.79392C21.1043 7.96532 20.9331 8.13648 20.762 8.30762C20.7108 8.35905 20.6596 8.41048 20.6068 8.46346C20.5373 8.53288 20.5373 8.53288 20.4663 8.6037C20.4258 8.64426 20.3853 8.68482 20.3436 8.7266C20.25 8.8125 20.25 8.8125 20.1875 8.8125C20.1875 6.09 20.1875 3.3675 20.1875 0.5625Z" fill="#1D86FE"/>
<path d="M11.8125 0.5625C11.8125 3.285 11.8125 6.0075 11.8125 8.8125C11.3203 8.39062 11.3203 8.39062 11.1278 8.19784C11.0841 8.1542 11.0404 8.11056 10.9953 8.0656C10.9258 7.99574 10.9258 7.99574 10.8549 7.92447C10.8048 7.87443 10.7548 7.82439 10.7032 7.77283C10.539 7.60863 10.3751 7.44421 10.2112 7.27979C10.0969 7.1654 9.98264 7.05104 9.86835 6.93668C9.59908 6.66721 9.32996 6.39759 9.06091 6.12791C8.75435 5.82065 8.44761 5.51356 8.14085 5.2065C7.51037 4.57536 6.88011 3.94401 6.25 3.3125C6.42579 3.13475 6.59191 2.96718 6.79956 2.82739C6.8435 2.79777 6.88744 2.76815 6.93271 2.73763C6.97941 2.7069 7.02611 2.67618 7.07422 2.64453C7.14838 2.59561 7.14838 2.59561 7.22403 2.5457C8.46031 1.74057 10.3015 0.5625 11.8125 0.5625Z" fill="#1D86FE"/>
<path d="M20.1875 23.1875C20.6798 23.6095 20.6798 23.6095 20.8702 23.7981C20.9135 23.8409 20.9568 23.8836 21.0014 23.9277C21.0473 23.9733 21.0931 24.0188 21.1404 24.0658C21.1899 24.1149 21.2395 24.1639 21.2905 24.2144C21.453 24.3753 21.6152 24.5365 21.7773 24.6978C21.8329 24.753 21.8884 24.8081 21.9456 24.865C22.1787 25.0967 22.4116 25.3285 22.6444 25.5606C22.9771 25.8923 23.3104 26.2235 23.6444 26.5539C23.9082 26.815 24.1711 27.077 24.4338 27.3392C24.5456 27.4506 24.6576 27.5617 24.7699 27.6725C24.9263 27.8269 25.0817 27.9822 25.2368 28.1378C25.3071 28.2066 25.3071 28.2066 25.3789 28.2768C25.4417 28.3404 25.4417 28.3404 25.5058 28.4053C25.5426 28.4419 25.5794 28.4785 25.6173 28.5162C25.6875 28.625 25.6875 28.625 25.6745 28.7576C25.6063 28.9193 25.5171 28.9725 25.3713 29.0688C25.3181 29.1043 25.2649 29.1398 25.2101 29.1763C25.1523 29.2135 25.0946 29.2507 25.0352 29.2891C24.9758 29.3278 24.9164 29.3666 24.8552 29.4065C21.7108 31.4375 21.7108 31.4375 20.1875 31.4375C20.1875 28.715 20.1875 25.9925 20.1875 23.1875Z" fill="#1D86FE"/>
<path d="M11.8125 23.1875C11.8125 25.91 11.8125 28.6325 11.8125 31.4375C11.4135 31.3876 11.1178 31.3265 10.75 31.1953C10.6698 31.1668 10.6698 31.1668 10.588 31.1378C9.23028 30.6415 7.95793 29.9771 6.76953 29.1562C6.72341 29.1247 6.67729 29.0932 6.62978 29.0607C6.52033 28.9829 6.41583 28.8982 6.3125 28.8125C6.3125 28.625 6.3125 28.625 6.39724 28.517C6.43726 28.4771 6.47728 28.4372 6.51851 28.396C6.56417 28.35 6.60983 28.304 6.65688 28.2566C6.70762 28.2064 6.75837 28.1563 6.81065 28.1046C6.86359 28.0515 6.91652 27.9984 6.97106 27.9438C7.11651 27.7982 7.26237 27.653 7.40843 27.508C7.56095 27.3564 7.71296 27.2043 7.86504 27.0523C8.12045 26.7971 8.37622 26.5423 8.63222 26.2877C8.96125 25.9605 9.28971 25.6327 9.61798 25.3047C9.89971 25.0232 10.1817 24.742 10.4638 24.4608C10.5547 24.3701 10.6455 24.2795 10.7364 24.1888C10.9053 24.0202 11.0745 23.8519 11.2438 23.6837C11.2944 23.6331 11.345 23.5826 11.3972 23.5305C11.443 23.485 11.4888 23.4395 11.5361 23.3927C11.5761 23.3528 11.6161 23.313 11.6574 23.2719C11.75 23.1875 11.75 23.1875 11.8125 23.1875Z" fill="#1D86FE"/>
<path d="M4.625 4.6875C4.80616 4.76957 4.93642 4.85793 5.07715 4.99805C5.113 5.03374 5.14885 5.06943 5.18579 5.1062C5.22245 5.14334 5.25911 5.18048 5.29688 5.21875C5.3345 5.25589 5.37212 5.29303 5.41089 5.3313C5.44642 5.36699 5.48195 5.40268 5.51855 5.43945C5.551 5.47204 5.58345 5.50463 5.61688 5.53821C5.6875 5.625 5.6875 5.625 5.6875 5.75C5.74162 5.77367 5.74162 5.77367 5.79683 5.79782C5.95495 5.88457 6.06066 5.98243 6.18823 6.10986C6.23748 6.15875 6.28673 6.20765 6.33747 6.25803C6.39093 6.31174 6.44438 6.36544 6.49945 6.42078C6.55618 6.47729 6.61291 6.5338 6.67136 6.59202C6.82672 6.74681 6.98168 6.902 7.13656 7.05727C7.29861 7.21964 7.46097 7.3817 7.62328 7.54382C7.89565 7.81596 8.16776 8.08837 8.43973 8.36093C8.75447 8.67636 9.06967 8.99133 9.3851 9.30607C9.65577 9.57618 9.92619 9.84652 10.1964 10.1171C10.3579 10.2787 10.5194 10.4403 10.6812 10.6017C10.8613 10.7813 11.0409 10.9615 11.2204 11.1417C11.2744 11.1954 11.3283 11.2491 11.3839 11.3045C11.4325 11.3534 11.481 11.4023 11.531 11.4526C11.5736 11.4952 11.6161 11.5378 11.6599 11.5817C11.75 11.6875 11.75 11.6875 11.75 11.8125C10.0831 12.0406 10.0831 12.0406 9.40398 11.5772C9.03633 11.277 8.71208 10.9374 8.39185 10.5883C8.23073 10.4149 8.06389 10.2471 7.89766 10.0786C7.58531 9.76025 7.27822 9.43735 6.97283 9.11237C6.62428 8.74197 6.27004 8.37722 5.91528 8.01278C5.18714 7.26452 4.46624 6.50967 3.75 5.75C3.82879 5.54415 3.89216 5.39695 4.05127 5.24292C4.0847 5.21009 4.11814 5.17726 4.15259 5.14343C4.18731 5.11028 4.22204 5.07713 4.25781 5.04297C4.29302 5.00861 4.32823 4.97425 4.3645 4.93884C4.45091 4.85463 4.5379 4.771 4.625 4.6875Z" fill="#D8052B"/>
<path d="M11.8125 20.25C12.0406 21.9169 12.0406 21.9169 11.5772 22.596C11.277 22.9637 10.9374 23.2879 10.5883 23.6081C10.4149 23.7693 10.2471 23.9361 10.0786 24.1023C9.76025 24.4147 9.43735 24.7218 9.11237 25.0272C8.74197 25.3757 8.37722 25.73 8.01278 26.0847C7.26452 26.8129 6.50967 27.5338 5.75 28.25C5.54647 28.1719 5.39728 28.1084 5.24292 27.9531C5.19367 27.9038 5.19367 27.9038 5.14343 27.8535C5.11028 27.8194 5.07713 27.7852 5.04297 27.75C5.00861 27.7158 4.97425 27.6817 4.93884 27.6465C4.6875 27.3917 4.6875 27.3917 4.6875 27.25C4.77374 27.165 4.77374 27.165 4.89636 27.0642C5.23013 26.7801 5.53679 26.471 5.84569 26.1604C5.9103 26.0957 5.97493 26.031 6.03957 25.9663C6.17774 25.8279 6.31581 25.6894 6.4538 25.5509C6.67186 25.332 6.89015 25.1133 7.10848 24.8947C7.57121 24.4313 8.03366 23.9676 8.49609 23.5039C8.99691 23.0017 9.49776 22.4996 9.99893 21.9977C10.2162 21.7802 10.4333 21.5625 10.6502 21.3446C10.7847 21.2098 10.9192 21.075 11.0538 20.9403C11.1164 20.8775 11.179 20.8147 11.2415 20.7519C11.3264 20.6665 11.4116 20.5813 11.4967 20.4962C11.5682 20.4245 11.5682 20.4245 11.6412 20.3513C11.75 20.25 11.75 20.25 11.8125 20.25Z" fill="#D80128"/>
<path d="M20.25 20.1884C21.9169 19.9603 21.9169 19.9603 22.596 20.4237C22.9637 20.7239 23.2879 21.0634 23.6081 21.4126C23.7693 21.586 23.9361 21.7538 24.1023 21.9223C24.4147 22.2406 24.7218 22.5635 25.0272 22.8885C25.3757 23.2589 25.73 23.6236 26.0847 23.9881C26.8129 24.7363 27.5338 25.4912 28.25 26.2509C28.1719 26.4544 28.1084 26.6036 27.9531 26.7579C27.9203 26.7908 27.8874 26.8236 27.8535 26.8574C27.8194 26.8906 27.7852 26.9237 27.75 26.9579C27.7158 26.9923 27.6817 27.0266 27.6465 27.062C27.3917 27.3134 27.3917 27.3134 27.25 27.3134C27.165 27.2271 27.165 27.2271 27.0642 27.1045C26.7801 26.7707 26.471 26.4641 26.1604 26.1552C26.0957 26.0906 26.031 26.0259 25.9663 25.9613C25.8279 25.8231 25.6894 25.6851 25.5509 25.5471C25.332 25.329 25.1133 25.1107 24.8947 24.8924C24.4313 24.4297 23.9676 23.9672 23.5039 23.5048C23.0017 23.004 22.4996 22.5031 21.9977 22.0019C21.7802 21.7847 21.5625 21.5676 21.3446 21.3506C21.2098 21.2162 21.075 21.0816 20.9403 20.947C20.8775 20.8844 20.8147 20.8219 20.7519 20.7594C20.6665 20.6744 20.5813 20.5893 20.4962 20.5042C20.4484 20.4565 20.4005 20.4088 20.3513 20.3596C20.25 20.2509 20.25 20.2509 20.25 20.1884Z" fill="#D80128"/>
<path d="M26.2499 3.75C26.4534 3.82807 26.6026 3.89155 26.757 4.04688C26.7898 4.07975 26.8226 4.11262 26.8565 4.14648C26.8896 4.18064 26.9228 4.2148 26.9569 4.25C26.9913 4.28416 27.0256 4.31832 27.061 4.35352C27.3124 4.60829 27.3124 4.60829 27.3124 4.75C27.2262 4.83499 27.2262 4.83499 27.1035 4.93581C26.7698 5.21994 26.4631 5.52898 26.1542 5.83958C26.0896 5.90432 26.025 5.96904 25.9603 6.03374C25.8221 6.17211 25.6841 6.31057 25.5461 6.44911C25.328 6.66801 25.1097 6.88667 24.8914 7.10529C24.4287 7.56871 23.9662 8.03239 23.5038 8.49609C23.003 8.99828 22.5021 9.50042 22.001 10.0023C21.7837 10.2198 21.5666 10.4375 21.3496 10.6554C21.2152 10.7902 21.0807 10.925 20.9461 11.0597C20.8835 11.1225 20.8209 11.1853 20.7584 11.2481C20.6735 11.3335 20.5883 11.4187 20.5032 11.5038C20.4555 11.5516 20.4078 11.5995 20.3587 11.6487C20.2499 11.75 20.2499 11.75 20.1874 11.75C19.9593 10.0831 19.9593 10.0831 20.4227 9.40398C20.7229 9.03633 21.0624 8.71208 21.4116 8.39185C21.585 8.23073 21.7528 8.06389 21.9213 7.89766C22.2396 7.58531 22.5625 7.27822 22.8875 6.97283C23.2579 6.62428 23.6227 6.27004 23.9871 5.91528C24.7354 5.18714 25.4902 4.46624 26.2499 3.75Z" fill="#D80128"/>
</g>
<defs>
<clipPath id="clip0_6_4272">
<rect width="32" height="32" fill="white"/>
</clipPath>
</defs>
</svg>
