<svg width="32" height="32" viewBox="0 0 32 32" fill="none" xmlns="http://www.w3.org/2000/svg">
<g clip-path="url(#clip0_6_3632)">
<path d="M15.9766 -0.0195381C16.0402 -0.0194034 16.1038 -0.0192687 16.1693 -0.01913C17.0824 -0.0160255 17.9782 -0.000344485 18.875 0.187493C18.9359 0.19991 18.9968 0.212328 19.0596 0.225121C22.0835 0.85766 24.8328 2.22744 27.0625 4.37499C27.1243 4.43426 27.1243 4.43426 27.1874 4.49471C27.7804 5.06624 28.3266 5.64733 28.8125 6.31249C28.8661 6.38443 28.9198 6.45637 28.9734 6.52831C29.3508 7.04026 29.6857 7.57237 30 8.12499C30.0228 8.16448 30.0456 8.20397 30.069 8.24465C31.4194 10.6039 32.0298 13.2768 32.0195 15.9766C32.0194 16.0402 32.0193 16.1038 32.0191 16.1693C32.016 17.0824 32.0003 17.9782 31.8125 18.875C31.7939 18.9664 31.7939 18.9664 31.7749 19.0596C31.1423 22.0835 29.7725 24.8328 27.625 27.0625C27.5855 27.1037 27.546 27.1449 27.5053 27.1874C26.9337 27.7804 26.3527 28.3266 25.6875 28.8125C25.6156 28.8661 25.5436 28.9198 25.4717 28.9734C24.9598 29.3507 24.4284 29.6872 23.875 30C23.8308 30.0251 23.7866 30.0503 23.7411 30.0762C22.2951 30.8903 20.7219 31.4371 19.0976 31.7695C19.0527 31.7787 19.0078 31.7879 18.9615 31.7974C18.0443 31.9718 17.1364 32.0218 16.2045 32.0197C16.0208 32.0195 15.8372 32.021 15.6534 32.0226C14.8176 32.0254 14.0116 31.95 13.1875 31.8125C13.0809 31.7949 13.0809 31.7949 12.9721 31.7769C10.2679 31.2911 7.70231 30.0419 5.62499 28.25C5.57843 28.2104 5.53186 28.1707 5.48388 28.1299C4.63982 27.3917 3.84786 26.5948 3.18749 25.6875C3.13396 25.6156 3.08041 25.5438 3.02685 25.4719C2.64935 24.96 2.31289 24.4285 1.99999 23.875C1.97486 23.8308 1.94972 23.7866 1.92382 23.7411C1.10973 22.2951 0.56293 20.7219 0.230462 19.0976C0.221252 19.0527 0.212042 19.0078 0.202554 18.9615C0.0166875 17.9836 -0.0233196 17.0165 -0.0195381 16.0234C-0.0194034 15.9598 -0.0192687 15.8962 -0.01913 15.8306C-0.0160255 14.9176 -0.000344485 14.0218 0.187493 13.125C0.19991 13.0641 0.212328 13.0031 0.225121 12.9404C0.85766 9.91649 2.22744 7.16723 4.37499 4.93749C4.4145 4.89628 4.45401 4.85507 4.49471 4.81262C5.06624 4.2196 5.64733 3.67336 6.31249 3.18749C6.38443 3.13386 6.45637 3.08023 6.52831 3.0266C7.04017 2.64926 7.57158 2.31283 8.12499 1.99999C8.16919 1.97486 8.2134 1.94972 8.25893 1.92382C9.7049 1.10973 11.2781 0.56293 12.9023 0.230462C12.9473 0.221252 12.9922 0.212042 13.0385 0.202554C14.0164 0.0166875 14.9835 -0.0233196 15.9766 -0.0195381Z" fill="#A2001D"/>
<path d="M-1.5153e-05 16C10.56 16 21.12 16 32 16C32.25 19.6875 30.5176 24.0592 27.625 27.0625C27.5855 27.1037 27.546 27.1449 27.5053 27.1874C26.9337 27.7804 26.3527 28.3266 25.6875 28.8125C25.6155 28.8661 25.5436 28.9198 25.4717 28.9734C24.9598 29.3507 24.4284 29.6872 23.875 30C23.8087 30.0377 23.8087 30.0377 23.741 30.0762C22.2951 30.8903 20.7219 31.4371 19.0976 31.7695C19.0527 31.7787 19.0078 31.788 18.9615 31.7974C18.0443 31.9718 17.1364 32.0218 16.2045 32.0197C16.0208 32.0195 15.8371 32.021 15.6534 32.0226C14.8176 32.0254 14.0116 31.95 13.1875 31.8125C13.1164 31.8007 13.0454 31.789 12.9721 31.7769C10.2679 31.2911 7.7023 30.0419 5.62498 28.25C5.57842 28.2104 5.53185 28.1707 5.48387 28.1299C4.63981 27.3917 3.84785 26.5948 3.18748 25.6875C3.13395 25.6156 3.08041 25.5438 3.02684 25.4719C2.64934 24.96 2.31288 24.4285 1.99998 23.875C1.97485 23.8308 1.94971 23.7866 1.92381 23.7411C1.01125 22.1202 0.42611 20.3334 0.124985 18.5C0.117663 18.4559 0.110342 18.4117 0.102799 18.3663C-0.0234911 17.5703 -1.5153e-05 16.8163 -1.5153e-05 16Z" fill="#F0F0F0"/>
</g>
<defs>
<clipPath id="clip0_6_3632">
<rect width="32" height="32" fill="white"/>
</clipPath>
</defs>
</svg>
