<svg width="32" height="32" viewBox="0 0 32 32" fill="none" xmlns="http://www.w3.org/2000/svg">
<mask id="mask0_6_4261" style="mask-type:alpha" maskUnits="userSpaceOnUse" x="0" y="0" width="32" height="32">
<circle cx="16" cy="16" r="16" fill="#D9D9D9"/>
</mask>
<g mask="url(#mask0_6_4261)">
<path d="M31.6138 -0.274475H1.11381C-1.94886 -0.274475 -4.43164 2.20831 -4.43164 5.27098V27.4528C-4.43164 30.5155 -1.94886 32.9983 1.11381 32.9983H31.6138C34.6765 32.9983 37.1593 30.5155 37.1593 27.4528V5.27098C37.1593 2.20831 34.6765 -0.274475 31.6138 -0.274475Z" fill="#D12D24"/>
<path d="M21.6417 16.3619L23.2956 14.0855L20.6186 14.9547L18.9646 12.6769V15.4926L16.2876 16.3619L18.9646 17.2311V20.0469L20.6186 17.7691L23.2956 18.6383L21.6417 16.3619Z" fill="white"/>
<path d="M16.2987 20.9715C13.7519 23.259 9.83405 23.0511 7.54516 20.5043C5.25627 17.9576 5.46562 14.0397 8.01237 11.7508C10.5591 9.46331 14.477 9.67126 16.7659 12.218C16.1531 11.2489 15.331 10.4268 14.3619 9.81406C10.7463 7.52656 5.96055 8.60237 3.67166 12.218C1.38416 15.8336 2.45998 20.6194 6.07562 22.9083C9.69125 25.1958 14.477 24.1199 16.7659 20.5043C16.6189 20.6679 16.4623 20.8246 16.2987 20.9715Z" fill="white"/>
</g>
</svg>
