<svg width="32" height="32" viewBox="0 0 32 32" fill="none" xmlns="http://www.w3.org/2000/svg">
<g clip-path="url(#clip0_6_3599)">
<path d="M15.7907 -0.0197157C15.975 -0.019519 16.1592 -0.0209877 16.3435 -0.0225691C17.1804 -0.0253576 17.9874 0.0497483 18.8125 0.187514C18.9191 0.20515 18.9191 0.20515 19.0278 0.223143C19.1901 0.252283 19.3508 0.284704 19.5117 0.320326C19.5985 0.339511 19.5985 0.339511 19.6871 0.359084C23.153 1.16499 26.4654 3.2095 28.625 6.06251C28.651 6.09619 28.6769 6.12987 28.7037 6.16456C29.184 6.78934 29.6055 7.44315 30 8.12501C30.0247 8.16734 30.0493 8.20967 30.0747 8.25328C31.2578 10.3103 31.9943 12.8088 32.0149 15.187C32.0155 15.2455 32.0161 15.304 32.0168 15.3642C32.0274 16.6394 32.0192 17.8729 31.75 19.125C31.7363 19.1912 31.7226 19.2573 31.7084 19.3255C31.1584 21.9313 29.9926 24.3548 28.25 26.375C28.2104 26.4216 28.1707 26.4681 28.1299 26.5161C27.3917 27.3602 26.5948 28.1521 25.6875 28.8125C25.6156 28.866 25.5438 28.9196 25.4719 28.9732C24.96 29.3507 24.4285 29.6871 23.875 30C23.8308 30.0252 23.7866 30.0503 23.7411 30.0762C22.2951 30.8903 20.7219 31.4371 19.0977 31.7695C19.0527 31.7788 19.0078 31.788 18.9615 31.7975C17.9911 31.9819 17.0286 32.0255 16.043 32.0235C15.9483 32.0234 15.9483 32.0234 15.8518 32.0233C14.8199 32.0208 13.8251 31.9641 12.8125 31.75C12.7474 31.7363 12.6823 31.7226 12.6152 31.7084C9.72185 31.0773 7.071 29.6799 4.93751 27.625C4.8963 27.5855 4.85509 27.546 4.81263 27.5053C4.21961 26.9338 3.67337 26.3527 3.18751 25.6875C3.13388 25.6156 3.08025 25.5436 3.02662 25.4717C2.64923 24.9597 2.31432 24.4276 2.00001 23.875C1.97723 23.8355 1.95445 23.796 1.93098 23.7554C0.997831 22.125 0.405417 20.2915 0.125007 18.4375C0.11397 18.3674 0.102932 18.2973 0.0915601 18.2251C-0.0122313 17.4979 -0.0248465 16.7767 -0.0234301 16.043C-0.0234169 15.9797 -0.0234037 15.9164 -0.0233901 15.8512C-0.0212825 14.8381 0.038946 13.8688 0.250007 12.875C0.261377 12.8183 0.272747 12.7615 0.284462 12.7031C0.878183 9.77533 2.30571 7.08599 4.37501 4.93751C4.41452 4.8963 4.45402 4.85509 4.49473 4.81264C5.06626 4.21962 5.64734 3.67338 6.31251 3.18751C6.38445 3.13388 6.45639 3.08026 6.52833 3.02663C7.04018 2.64928 7.57159 2.31285 8.12501 2.00001C8.16921 1.97488 8.21341 1.94974 8.25895 1.92384C9.89675 1.00174 11.7053 0.406183 13.5625 0.125014C13.6324 0.113931 13.7023 0.102848 13.7743 0.0914293C14.4469 -0.00508992 15.1118 -0.0212234 15.7907 -0.0197157Z" fill="#D80026"/>
<path d="M0.9375 21.5625C10.8787 21.5625 20.82 21.5625 31.0625 21.5625C30.3515 23.34 29.4968 24.9159 28.25 26.375C28.2102 26.4218 28.1704 26.4686 28.1294 26.5168C27.3908 27.3603 26.5947 28.1522 25.6875 28.8125C25.6156 28.866 25.5438 28.9196 25.4719 28.9731C24.96 29.3506 24.4285 29.6871 23.875 30C23.8087 30.0377 23.8087 30.0377 23.7411 30.0762C22.2951 30.8903 20.7219 31.4371 19.0977 31.7695C19.0527 31.7787 19.0078 31.788 18.9615 31.7974C17.9911 31.9819 17.0286 32.0254 16.043 32.0234C15.9799 32.0234 15.9168 32.0234 15.8518 32.0233C14.8199 32.0208 13.8251 31.9641 12.8125 31.75C12.7474 31.7363 12.6823 31.7225 12.6152 31.7084C9.72184 31.0773 7.07099 29.6799 4.9375 27.625C4.89629 27.5855 4.85508 27.546 4.81262 27.5053C4.21961 26.9338 3.67336 26.3527 3.1875 25.6875C3.13387 25.6156 3.08024 25.5436 3.02661 25.4717C2.64932 24.9599 2.31348 24.428 2 23.875C1.97656 23.8339 1.95311 23.7927 1.92896 23.7503C1.5276 23.039 1.24394 22.3286 0.9375 21.5625Z" fill="#FED943"/>
<path d="M15.7907 -0.0197157C15.975 -0.019519 16.1592 -0.0209877 16.3435 -0.0225691C17.1804 -0.0253576 17.9874 0.0497483 18.8125 0.187514C18.9191 0.20515 18.9191 0.20515 19.0278 0.223143C19.1901 0.252283 19.3508 0.284704 19.5117 0.320326C19.5985 0.339511 19.5985 0.339511 19.6871 0.359084C23.153 1.16499 26.4654 3.2095 28.625 6.06251C28.651 6.09619 28.6769 6.12987 28.7036 6.16456C29.7165 7.48211 30.444 8.89125 31.0625 10.4375C21.1213 10.4375 11.18 10.4375 0.9375 10.4375C1.52427 8.9706 1.52427 8.9706 1.75781 8.53517C1.78609 8.48191 1.81437 8.42865 1.84351 8.37378C2.52582 7.11778 3.3845 5.96592 4.375 4.93751C4.41451 4.8963 4.45402 4.85509 4.49472 4.81264C5.06625 4.21962 5.64733 3.67338 6.3125 3.18751C6.38444 3.13388 6.45638 3.08026 6.52832 3.02663C7.04017 2.64928 7.57159 2.31285 8.125 2.00001C8.1692 1.97488 8.2134 1.94974 8.25894 1.92384C9.89674 1.00174 11.7053 0.406183 13.5625 0.125014C13.6324 0.113931 13.7023 0.102848 13.7743 0.0914293C14.4468 -0.00508992 15.1118 -0.0212234 15.7907 -0.0197157Z" fill="#3C3C3C"/>
</g>
<defs>
<clipPath id="clip0_6_3599">
<rect width="32" height="32" fill="white"/>
</clipPath>
</defs>
</svg>
